<?xml version="1.0" encoding="UTF-8"?>
<svg id="Ebene_1" xmlns="http://www.w3.org/2000/svg" version="1.1" viewBox="0 0 80 80">
  <!-- Generator: Adobe Illustrator 29.1.0, SVG Export Plug-In . SVG Version: 2.1.0 Build 142)  -->
  <defs>
    <style>
      .st0 {
        fill: #ac8f27;
      }

      .st1 {
        fill: #fff;
      }
    </style>
  </defs>
  <circle class="st0" cx="40" cy="40" r="40"/>
  <g>
    <path class="st1" d="M50.0850032,41.3199583c2.4500122-2.5199585,3.9599609-5.9599609,3.9599609-9.7399902,0-7.75-6.2999878-14.0499878-14.0499878-14.0499878-7.7399902,0-14.0499878,6.2999878-14.0499878,14.0499878,0,3.7800293,1.5100098,7.2200317,3.960022,9.7399902l-4.8800049,18.2600098,6.5299683-2.75,4.25,5.6400146,4.1900024-15.6300049,4.2000122,15.6300049,4.25-5.6400146,6.5300293,2.75-4.8900146-18.2600098ZM35.1450008,59.1200071l-3.1000366-4.1199951-4.7799683,2.0099487,3.8800049-14.539978c2.1199951,1.7299805,4.7600098,2.8499756,7.6400146,3.0999756l-3.6400146,13.5500488ZM27.4449886,31.579968c0-6.9199829,5.6300049-12.5499878,12.5499878-12.5499878s12.5499878,5.6300049,12.5499878,12.5499878c0,6.9200439-5.6300049,12.5400391-12.5499878,12.5400391s-12.5499878-5.6199951-12.5499878-12.5400391ZM47.9449886,55.000012l-3.0999756,4.1199951-3.6400146-13.5500488c2.8800049-.25,5.5200195-1.3699951,7.6400146-3.0999756l3.8899536,14.539978-4.789978-2.0099487Z"/>
    <path class="st1" d="M49.6649593,29.1099973l-5.0199585-1.5-.3400269-5.2300415-4.3099976,2.9800415-4.2999878-2.9800415-.3499756,5.2300415-5.0200195,1.5,3.8699951,3.5299683-1.9500122,4.8600464,5.1699829-.8200073,2.5800171,4.5499878,2.5800171-4.5499878,5.1799927.8200073-1.960022-4.8600464,3.8699951-3.5299683ZM41.7850154,35.0299803l-1.7900391,3.1599731-1.789978-3.1599731-3.5800171.5700073,1.3500366-3.3699951-2.6800537-2.4400024,3.4800415-1.0499878.2399902-3.6199951,2.9799805,2.0699463,2.9899902-2.0699463.2400513,3.6199951,3.4699707,1.0499878-2.6799927,2.4400024,1.3599854,3.3699951-3.5899658-.5700073Z"/>
  </g>
</svg>