<?xml version="1.0" encoding="UTF-8"?>
<svg id="Ebene_1" xmlns="http://www.w3.org/2000/svg" version="1.1" viewBox="0 0 80 80">
  <!-- Generator: Adobe Illustrator 29.1.0, SVG Export Plug-In . SVG Version: 2.1.0 Build 142)  -->
  <defs>
    <style>
      .st0 {
        fill: #ac8f27;
      }

      .st1 {
        fill: #fff;
      }
    </style>
  </defs>
  <circle class="st0" cx="40" cy="40" r="40"/>
  <g>
    <path class="st1" d="M59.545105,30.1100464h-6.4199829v-6.4099731c0-.8499756-.6900024-1.5499878-1.539978-1.5499878h-29.1300049c-.8500366,0-1.5400391.7000122-1.5400391,1.5499878v21.1599731c0,.8600464.6900024,1.5500488,1.5400391,1.5500488h6.4199829v6.4099731c0,.8499756.6900024,1.5499878,1.539978,1.5499878h9.0900269l5.4699707,5.4800415,5.4800415-5.4800415h9.0899658c.8500366,0,1.5400391-.7000122,1.5400391-1.5499878v-21.1599731c0-.8500366-.6900024-1.5500488-1.5400391-1.5500488ZM28.8751221,31.6600952v13.2299805l-6.460022-.0300293.0400391-21.2099609,29.1699829.0499878v6.4099731h-21.210022c-.8499756,0-1.539978.7000122-1.539978,1.5500488ZM59.585144,52.8200684l-9.75.0499878-4.8600464,4.8600464-4.8499756-4.8600464-9.75-.0499878.0100098-6.4099731v-1.5100098l.0299683-13.2900391,21.210022.0400391h1.5l6.460022.0100098v21.1599731Z"/>
    <path class="st1" d="M39.015625,42.074585c-.6490479,0-1.1660156.5170288-1.1660156,1.1659546,0,.6380615.5169678,1.1550903,1.1660156,1.1550903.6380005,0,1.1549683-.5170288,1.1549683-1.1550903,0-.6489258-.5169678-1.1659546-1.1549683-1.1659546Z"/>
    <path class="st1" d="M50.9445801,42.074585c-.6380005,0-1.1549683.5170288-1.1549683,1.1659546,0,.6380615.5169678,1.1550903,1.1549683,1.1550903.2860107,0,.5500488-.0990601.7480469-.2750244.2529297-.2089844.4179688-.5280151.4179688-.8800659,0-.362915-.1650391-.6820068-.4179688-.8909912-.197998-.1759644-.4620361-.2749634-.7480469-.2749634Z"/>
    <path class="st1" d="M44.9745483,42.074585c-.6379395,0-1.1549683.5170288-1.1549683,1.1659546,0,.6380615.5170288,1.1550903,1.1549683,1.1550903.6490479,0,1.1660767-.5170288,1.1660767-1.1550903,0-.6489258-.5170288-1.1659546-1.1660767-1.1659546Z"/>
  </g>
</svg>