<?xml version="1.0" encoding="UTF-8"?>
<svg id="Ebene_1" xmlns="http://www.w3.org/2000/svg" version="1.1" viewBox="0 0 20 20">
  <!-- Generator: Adobe Illustrator 29.1.0, SVG Export Plug-In . SVG Version: 2.1.0 Build 142)  -->
  <defs>
    <style>
      .st0 {
        fill: #ac8f27;
      }

      .st1 {
        fill: #fff;
      }
    </style>
  </defs>
  <g id="Gruppe_5198">
    <path id="Pfad_1518" class="st0" d="M10,.0000007C15.5228472.0000007,20,4.477153,20,10.0000007s-4.4771528,10-10,10S0,15.5228478,0,10.0000007,4.4771523.0000007,10,.0000007Z"/>
    <path id="Pfad_1516" class="st1" d="M13.75,9.7500026c-.0008698-.4036903-.3215141-.7340641-.7249985-.7469997h-2.2750015v-2.25c0-.4142132-.3357849-.75-.75-.75s-.75.3357868-.75.75v2.25h-2.25c-.4142151,0-.75.3357868-.75.75s.3357849.75.75.75h2.25v2.25c0,.4142132.3357849.75.75.75s.75-.3357868.75-.75v-2.25h2.2750015c.4034843-.0129356.7241287-.3433094.7249985-.7469997"/>
  </g>
</svg>