<?xml version="1.0" encoding="UTF-8"?>
<svg id="Ebene_1" xmlns="http://www.w3.org/2000/svg" version="1.1" viewBox="0 0 80 80">
  <!-- Generator: Adobe Illustrator 29.1.0, SVG Export Plug-In . SVG Version: 2.1.0 Build 142)  -->
  <defs>
    <style>
      .st0 {
        fill: #ac8f27;
      }

      .st1 {
        fill: #fff;
      }
    </style>
  </defs>
  <g id="Gruppe_1057">
    <g id="Gruppe_1011">
      <circle id="Ellipse_15" class="st0" cx="40" cy="40" r="39.999685"/>
    </g>
  </g>
  <g id="Gruppe_1095">
    <g id="Gruppe_1094">
      <g id="Gruppe_1093">
        <g id="Pfad_656">
          <path class="st1" d="M40.1905484,61.2824784l-.7333984-.796875c-.5712891-.6210938-13.9970703-15.3408203-13.9970703-25.8759766,0-8.1240234,6.609375-14.7333984,14.7333984-14.7333984s14.7333984,6.609375,14.7333984,14.7333984c0,10.6689453-13.4287307,25.2636719-14,25.8798828l-.7363281.7929688ZM40.193478,21.8762284c-7.0214844,0-12.7333984,5.7119141-12.7333984,12.7333984,0,8.4238281,9.9248047,20.4550781,12.7363281,23.6943359,2.8144531-3.2197266,12.7304688-15.1689453,12.7304688-23.6943359,0-7.0214844-5.7119141-12.7333984-12.7333984-12.7333984ZM39.9307827,40.1496659c-1.2861328,0-2.5458984-.5039062-3.5273438-1.4355469-1.1083984-1.0507812-1.7431641-2.546875-1.7431641-4.1044922,0-3.1025391,2.4306641-5.5332031,5.5332031-5.5332031s5.5332031,2.4306641,5.5332031,5.5332031-2.4306641,5.5332031-5.5332031,5.5332031c-.0878906.0048828-.1757812.0068359-.2626953.0068359ZM40.193478,31.0764237c-1.9814453,0-3.5332031,1.5517578-3.5332031,3.5332031,0,1.0117188.4082031,1.9785156,1.1191406,2.6533203.6474609.6142578,1.4931641.9277344,2.3613281.8808594,2.0341797-.0009766,3.5859375-1.5527344,3.5859375-3.5341797s-1.5517578-3.5332031-3.5332031-3.5332031Z"/>
        </g>
      </g>
    </g>
  </g>
</svg>