<?xml version="1.0" encoding="UTF-8"?>
<svg id="Ebene_1" xmlns="http://www.w3.org/2000/svg" version="1.1" viewBox="0 0 80 80">
  <!-- Generator: Adobe Illustrator 29.1.0, SVG Export Plug-In . SVG Version: 2.1.0 Build 142)  -->
  <defs>
    <style>
      .st0 {
        fill: #ac8f27;
      }

      .st1 {
        fill: #fff;
      }
    </style>
  </defs>
  <g id="Gruppe_1058">
    <g id="Gruppe_1011">
      <circle id="Ellipse_15" class="st0" cx="40" cy="40" r="39.999685"/>
    </g>
  </g>
  <path class="st1" d="M49.8959431,56.3633007c-.6318359,0-1.2636719-.0400391-1.828125-.1201172-4.75-.5585938-10.3164062-3.6220703-15.6484375-8.6210938-4.8876953-4.8867188-8.0908203-10.4902344-8.8125-15.3974609-.1591797-1.1162109-.1611328-2.4951172-.0068359-3.6152344.0419922-.5478516.4355469-1.1064453.9863281-1.3837891l5.7070312-3.4277344c1.1542969-.3867188,1.8740234.0263672,2.1904297.5615234l5.5429688,7.8779297c.421875.6005859.3857422,1.8105469-.1083984,2.3076172l-2.8222656,2.9453125c.9111328,1.4091797,1.9824219,2.7246094,3.2597656,4.0019531,1.5273438,1.5263672,3.0048828,2.6074219,4.0048828,3.2597656l2.9560547-2.8339844c.6289062-.6318359,1.71875-.3330078,2.0371094-.2265625l.2470703.1230469,7.8691406,5.3925781c.9316406.4980469,1.3320312,1.4121094,1.0214844,2.3476562l-.09375.2021484-3.5214844,5.7626953c-.3603516.3603516-.7236328.6865234-1.1914062.7285156-.5537109.0771484-1.1708984.1152344-1.7890625.1152344ZM25.5707477,28.9648632c-.1181641.9208984-.1132812,2.0732422.015625,2.9726562.6591797,4.4873047,3.6572266,9.6816406,8.2236328,14.2480469,4.9990234,4.6865234,10.1630859,7.5615234,14.5166016,8.0742188.9082031.1298828,2.0390625.1386719,2.953125.0244141.0332031-.0283203.0644531-.0595703.0947266-.0898438l3.1591797-5.2197266c-.0078125-.0048828-.015625-.0087891-.0244141-.0136719l-.1191406-.0693359-7.7880859-5.3369141c-.03125-.0068359-.0595703-.0126953-.0859375-.0166016l-3.8857422,3.7246094-.6552734-.3925781c-1.7236328-1.0341797-3.5107422-2.4414062-5.0332031-3.9638672-1.5878906-1.5878906-2.8837891-3.2333984-3.9628906-5.0322266l-.3925781-.6552734,3.7333984-3.8955078c-.0009766-.0126953-.0009766-.0263672-.0009766-.0390625l-5.3417969-7.5908203-5.40625,3.2714844ZM51.1977009,54.3496288h0ZM54.6303181,49.0400585h0ZM36.4877399,33.1474804c-.0068359.0068359-.0136719.0136719-.0195312.0205078l.0195312-.0205078ZM25.5570759,28.9726757l-.0039062.0019531c.0009766,0,.0029297-.0009766.0039062-.0019531ZM25.5922321,28.8037304l-.0058594.0439453c-.0048828.0292969-.0087891.0585938-.0126953.0888672.0097656-.0341797.015625-.0849609.0185547-.1328125Z"/>
</svg>