<?xml version="1.0" encoding="UTF-8"?>
<svg id="Ebene_1" xmlns="http://www.w3.org/2000/svg" version="1.1" viewBox="0 0 130 130">
  <!-- Generator: Adobe Illustrator 29.1.0, SVG Export Plug-In . SVG Version: 2.1.0 Build 142)  -->
  <defs>
    <style>
      .st0 {
        fill: #ac8f27;
      }

      .st1 {
        fill: #fff;
      }
    </style>
  </defs>
  <g>
    <path class="st0" d="M65,130c35.9,0,65-29.1,65-65S100.9,0,65,0,0,29.1,0,65s29.1,65,65,65"/>
    <path class="st1" d="M110.3,68.3c0,1.1.7,2.1,1.8,2.1,1.1,0,2.1-.7,2.1-1.8,0-1.1-.7-2.1-1.8-2.1-1.1,0-2.1.7-2.1,1.8M116.6,53.3l-6.6,1.5,5.5-6.3-.5-2.1-10.8,2.5.5,2.3,6.7-1.6-5.6,6.4.5,2,10.8-2.5-.5-2.3ZM101,39.4l1.9-1.2,2.1,3.2,1.8-1.2-2.1-3.2,1.8-1.2,2.3,3.6,1.9-1.2-3.6-5.6-9.3,6,3.7,5.7,1.9-1.2-2.4-3.7ZM101.9,26.7l-6.5-5.6-1.5,1.7,2.3,2-5.8,6.7,1.8,1.6,5.8-6.7,2.3,2,1.5-1.7ZM86.2,16.2l-1.8,3.9-3.8-1.7,1.8-3.9-2.2-1-4.6,10.1,2.2,1,1.9-4.2,3.8,1.7-1.9,4.2,2.2,1,4.6-10.1-2.2-1ZM65.3,22.9c2.7,0,4.9-1.7,5.5-4.4h-2.4c-.4,1.3-1.6,2.2-3,2.1-1.9,0-3.3-1.6-3.2-3.6,0-2,1.5-3.5,3.4-3.4,1.4,0,2.5.9,2.9,2.2h2.4c-.4-2.6-2.6-4.4-5.2-4.5-3.3,0-5.8,2.3-5.9,5.6,0,3.3,2.3,5.8,5.6,5.9ZM48.2,17.3l2.7,3.3-2.8.9v-4.2ZM53.6,24.1l2.5-.8-7.8-9.1-2.1.7-.6,11.9,2.4-.8v-2.2s4.2-1.4,4.2-1.4l1.4,1.7ZM37,19.3l-7,5,1.3,1.8,2.5-1.8,5.1,7.2,1.9-1.4-5.1-7.2,2.5-1.8-1.3-1.8ZM30.6,40.5c1.6-2.1,1.4-4.7-.6-6.3l-5.4-4.3-1.5,1.9,5.3,4.2c1.1.9,1.2,2.1.4,3.1-.8,1-2,1.2-3.1.3l-5.3-4.2-1.5,1.9,5.4,4.3c2,1.6,4.7,1.2,6.3-.9M18.4,52.6l1.8.5.9-3.2c1,.7,1.4,2.1,1,3.5-.5,1.9-2.3,2.8-4.3,2.2-2-.6-3-2.3-2.5-4.1.4-1.3,1.4-2.3,2.7-2.4l.7-2.4c-2.5-.2-4.8,1.5-5.6,4.2-.9,3.2.8,6.1,4,7.1,3.2.9,6.2-.8,7.1-3.9.9-3.2-.9-6.1-4.3-7.1l-1.6,5.7ZM19,68.2c0-1.1-.9-2-2.1-1.9-1.1,0-2,.9-1.9,2.1,0,1.1.9,2,2,1.9,1.1,0,2-.9,1.9-2.1"/>
    <path class="st1" d="M108.5,86.1l1.7.9,1.5-3c.8.9,1,2.4.3,3.7-.9,1.8-2.8,2.3-4.7,1.4-1.9-1-2.6-2.9-1.6-4.6.6-1.3,1.9-2,3.2-1.9l1.1-2.2c-2.5-.7-5.1.6-6.4,3.1-1.5,3-.4,6.3,2.6,7.9,3,1.5,6.4.4,7.9-2.5,1.5-3,.3-6.3-2.8-7.9l-2.7,5.4ZM96.1,94.3l5,4.8-8.4-1.2-1.5,1.6,8.2,7.8,1.7-1.7-5.1-4.9,8.6,1.2,1.4-1.5-8.2-7.8-1.7,1.7ZM87.5,114.2c2.4-1.2,3.3-3.8,2.1-6.1l-3.2-6.3-2.2,1.1,3.2,6.2c.6,1.3.2,2.5-.9,3.1-1.2.6-2.4.2-3-1l-3.2-6.2-2.2,1.1,3.2,6.3c1.2,2.4,3.8,3.1,6.2,1.9M73.3,106.4l-8.6,1.5.4,2.2,3.1-.6,1.6,8.9,2.4-.4-1.6-8.9,3.1-.6-.4-2.2ZM56.1,109.2l1,4.2-2.9-.4,2-3.8ZM58.1,117.8l2.6.3-3.1-11.8-2.3-.3-5.8,10.6,2.6.3,1-2,4.5.6.5,2.2ZM41.6,102.4l1.7.9c.9.5,1.2,1.3.8,2-.4.8-1.2,1-2.1.6l-1.7-.9,1.3-2.6ZM40.8,112.1l2.4,1.2-.3-4.9c1.4,0,2.7-.7,3.3-2,1-1.9.2-4.1-1.8-5.1l-4.1-2.1-5.2,10.1,2.2,1.1,1.8-3.4,1.4.7.2,4.4ZM27.2,98.8l1.6-1.7,2.8,2.7,1.5-1.6-2.8-2.7,1.5-1.6,3.1,3,1.6-1.6-4.9-4.7-7.8,8.2,5,4.8,1.6-1.6-3.3-3.1ZM19.4,87.1l-1.1-1.9,2.2-1.3,1.1,1.9c.4.7.2,1.4-.4,1.8-.6.4-1.4.2-1.8-.5ZM25,85.2c-.6.4-1.3.2-1.7-.5l-1-1.8,2.1-1.2,1,1.8c.4.7.2,1.3-.4,1.7ZM23.8,87.1c.9.4,1.9.4,2.7-.1,1.4-.8,1.8-2.7.8-4.4l-2.3-4-9.8,5.6,2.4,4.2c1,1.7,3,2.4,4.6,1.5,1-.6,1.6-1.6,1.6-2.7Z"/>
  </g>
  <rect class="st1" x="49.2" y="42.7" width="4.4" height="4.4" transform="translate(-16.7 49.5) rotate(-45)"/>
  <polygon class="st1" points="65.5 49.3 65.5 53.4 77.6 53.4 77.6 75.3 65.5 82.3 53.4 75.3 53.4 53.4 49.4 53.4 49.4 77.6 49.4 77.6 65.5 86.9 81.7 77.6 81.7 49.3 65.5 49.3"/>
</svg>