<?xml version="1.0" encoding="UTF-8"?>
<svg id="Ebene_1" xmlns="http://www.w3.org/2000/svg" version="1.1" viewBox="0 0 150 20">
  <!-- Generator: Adobe Illustrator 29.1.0, SVG Export Plug-In . SVG Version: 2.1.0 Build 142)  -->
  <defs>
    <style>
      .st0 {
        fill: #173f34;
      }
    </style>
  </defs>
  <path class="st0" d="M143.1324015,16.4156241c-2.4311322,0-4.1819293-1.7555546-4.1819293-4.2152341s1.7507971-4.2152341,4.1819293-4.2152341c2.4335188,0,4.1819384,1.7555549,4.1819384,4.2152341s-1.7484196,4.2152341-4.1819384,4.2152341M143.1324015,18.9347735c3.9226464,0,6.8675985-2.8712118,6.8675985-6.7343835,0-3.8679283-2.9449521-6.7343835-6.8675985-6.7343835-3.9297698,0-6.8675895,2.8498025-6.8675895,6.7343835,0,3.860793,2.9378197,6.7343835,6.8675895,6.7343835ZM128.4980309,5.4897951c-1.8887734,0-3.4778101.7921409-4.4483628,2.088586l-.5138199-1.798373h-1.8388097v12.8407638h2.6380921v-6.8747327c0-2.2622389,1.4344089-3.884581,3.454017-3.884581,1.9315864,0,2.9473296,1.2393558,2.9473296,3.5705794v7.1887342h2.6380921v-7.7263432c0-3.1614254-1.8721218-5.402255-4.8765385-5.402255v-.0023786ZM112.0771737,18.9323947c3.5467847,0,5.8351947-2.2788905,5.8351947-5.7329084v-7.4194782h-2.6380921v7.0483856c0,2.2051476-1.1941551,3.5848518-3.1971026,3.5848518-1.9839275,0-3.2042441-1.3559162-3.2042441-3.5848518v-7.0483856h-2.6380921v7.4194782c0,3.4540179,2.312194,5.7329084,5.8423362,5.7329084ZM96.7576948,18.9347735c3.4421296,0,5.8351947-2.4739521,5.8351947-5.9041823V1.9739281h-2.6832827v10.9258296c0,2.0124648-1.3321314,3.4016841-3.151912,3.4016841-1.8959058,0-3.2280281-1.3939768-3.2280281-3.4016841v-.3163807h-2.6832917v.4472143c0,3.4302302,2.4858509,5.9041823,5.9113199,5.9041823M82.306482,16.22532c-1.5533562,0-2.4073392-.8539892-2.4073392-2.3859363v-5.8018933h3.8013216v-2.2574822h-3.8251147v-2.9972876h-.4472138l-4.4626278,4.7457061v.5090638h2.29792v6.0112279c0,2.8379084,1.7341455,4.5744325,4.5458854,4.5744325h1.9625119v-2.3978307h-1.4653436ZM66.9537092,18.9323947c3.5444117,0,5.8328172-2.2788905,5.8328172-5.7329084v-7.4194782h-2.6357101v7.0483856c0,2.2051476-1.1965371,3.5848518-3.1994846,3.5848518-1.9839185,0-3.2042441-1.3559162-3.2042441-3.5848518v-7.0483856h-2.6357101v7.4194782c0,3.4540179,2.309812,5.7329084,5.8399542,5.7329084h.0023775ZM57.0460089,16.22532c-1.5557382,0-2.4073482-.8539892-2.4073482-2.3859363v-5.8018933h3.8013216v-2.2574822h-3.8251102v-2.9972876h-.4495913l-4.4626323,4.7457061v.5090638h2.2979246v6.0112279c0,2.8379084,1.7341455,4.5744325,4.5458854,4.5744325h1.9648894v-2.3978307h-1.465339ZM44.6762462,18.6207719h2.6380876V5.7776295h-2.6380876v12.8431424ZM44.6310466,3.7889526h2.7261048V1.0652265h-2.7261048v2.7237261ZM40.4181917,16.22532c-1.5557337,0-2.4073437-.8539892-2.4073437-2.3859363v-5.8018933h3.8013216v-2.2574822h-3.8251102v-2.9972876h-.4495935l-4.4626278,4.7457061v.5090638h2.29792v6.0112279c0,2.8379084,1.7341455,4.5744325,4.5482652,4.5744325h1.9625119v-2.3978307h-1.4653436ZM26.5164862,18.9347735c3.130501,0,5.2095714-1.6152054,5.2095714-4.1105668,0-3.1685616-2.6380899-3.5872307-4.8075549-3.9511868-1.548599-.2545319-2.8616968-.4781388-2.8616968-1.6128264,0-.9372474.9039443-1.5581146,2.3645284-1.5581146,1.5509765,0,2.4810868.6541703,2.5310414,1.8768734h2.5024979c-.0523321-2.4906036-1.9862982-4.1129457-4.9716904-4.1129457-2.9877742,0-4.9812095,1.5747661-4.9812095,3.8798232,0,2.978258,2.5215292,3.4635333,4.6624484,3.8322472,1.5723875.264047,2.9520914.5423668,2.9520914,1.7626911,0,1.0728388-1.0894909,1.6746753-2.5096326,1.6746753-1.548599,0-2.6880445-.7112613-2.7570303-2.0695562h-2.5786185c.0689836,2.6642562,2.1218879,4.3888864,5.2452542,4.3888864M13.5306158,5.4897951c-1.8887677,0-3.475427.7921409-4.4483566,2.088586l-.5114424-1.798373h-1.8388125v12.8407638h2.6380893v-6.8747327c0-2.2622389,1.4320377-3.884581,3.451639-3.884581,1.933965,0,2.9497128,1.2393558,2.9497128,3.5705794v7.1887342h2.6380887v-7.7263432c0-3.1614254-1.8744936-5.402255-4.8789183-5.402255v-.0023786ZM0,18.6207719h2.7332415V1.9715494H0v16.6492224Z"/>
</svg>