<?xml version="1.0" encoding="UTF-8"?>
<svg id="Ebene_1" xmlns="http://www.w3.org/2000/svg" xmlns:xlink="http://www.w3.org/1999/xlink" version="1.1" viewBox="0 0 700 700">
  <!-- Generator: Adobe Illustrator 29.1.0, SVG Export Plug-In . SVG Version: 2.1.0 Build 142)  -->
  <defs>
    <style>
      .st0, .st1, .st2, .st3 {
        fill: none;
      }

      .st4 {
        fill: #ac8f27;
      }

      .st1 {
        stroke-width: 49.6230489px;
      }

      .st1, .st2, .st3 {
        stroke: #fff;
      }

      .st2 {
        stroke-width: 18.6086433px;
      }

      .st5 {
        clip-path: url(#clippath-1);
      }

      .st6 {
        fill: #fff;
      }

      .st3 {
        stroke-dasharray: 14.9539061 14.9539061;
        stroke-width: 3.7217287px;
      }

      .st7 {
        fill: #fcf8ea;
      }

      .st8 {
        clip-path: url(#clippath);
      }

      .st9 {
        fill: #173f34;
      }
    </style>
    <clipPath id="clippath">
      <rect class="st0" x="-.8158138" y="-.3438812" width="700.7531199" height="700.7530909"/>
    </clipPath>
    <clipPath id="clippath-1">
      <rect class="st0" x="36.7594144" y="433.5589331" width="61.9611545" height="61.9611545"/>
    </clipPath>
  </defs>
  <rect class="st7" width="700" height="700"/>
  <g class="st8">
    <path class="st2" d="M703.2529549,51.9004731s-26.4999759,36.8699251-82.5057731,51.877194c-56.0057972,15.0072311-89.2420925,72.5737055-74.236073,128.5795027,15.0072311,56.0057972,72.5737055,89.2420925,128.5794648,74.236073,56.0058351-15.0072311,89.2433419-72.5737055,74.2361109-128.5795027-15.0072311-56.0057972-19.3468246-111.3441714-19.3468246-111.3441714"/>
    <line class="st2" x1="-119.629887" y1="632.138195" x2="566.1059881" y2="275.2033493"/>
    <line class="st2" x1="-141.5049704" y1="221.0386538" x2="541.4892892" y2="207.1454728"/>
    <line class="st2" x1="319.9443376" y1="-4.3658345" x2="555.5557904" y2="146.848012"/>
    <line class="st1" x1="472.3300077" y1="-34.2564965" x2="1017.4019121" y2="173.2224462"/>
    <polyline class="st2" points="690.9449462 305.0949199 821.0590031 612.7962732 905.4566473 720.0527673"/>
    <polyline class="st2" points="647.9188967 860.7167002 624.1295767 361.360016 596.3481365 297.7209349"/>
    <line class="st2" x1="666.3288531" y1="310.3698294" x2="623.2262519" y2="361.360016"/>
    <path class="st2" d="M85.6754162,519.2984835l-23.8488397-49.6155882c-5.1992523-10.4282905-17.8680136-14.6673485-28.2975392-9.468082l-64.4702601,16.7477782c-10.4295209,5.1992476-14.6685694,17.8692487-9.4693219,28.2975392l30.8816691,63.6824869"/>
    <line class="st3" x1="472.3300077" y1="-34.2564965" x2="1017.4019121" y2="173.2224462"/>
    <path class="st9" d="M756.0566436,568.6462449c.4900518.5123605,1.0346969.8882568,1.6338594,1.1264491.5992383.2381828,1.2182391.327512,1.8583655.2679592l-.2232946-1.8645839c-.4515867.0161281-.863421-.0570636-1.2355787-.2171046-.3734449-.1600316-.7009286-.3982239-.9825266-.7133275-.2816738-.3151036-.5173106-.6996887-.705926-1.1537362-.2890185-.6984488-.3894973-1.3745605-.3027236-2.0283447.0856379-.6537842.3623143-1.2504953.8287418-1.7901524.4664276-.5396476,1.1239693-.9850159,1.9737609-1.3373353l.996156-.4118722c.6202881-.2580401,1.2579915-.3634879,1.9105357-.3200727.6537558.0446646,1.2542055.246881,1.8012736.6066492.5458565.3597588.9626883.8845276,1.2479966,1.5730478.2580495.6252477.3399772,1.2281678.2419214,1.8087603-.0967686.5805831-.3424002,1.1003923-.7356078,1.5581596-.3944947.4577767-.9080951.8187848-1.5432998,1.0817845l-2.8645164-6.9162083-1.4948398.6190482,3.5927037,8.6741045.7331848-.3039446c1.049462-.4341998,1.8757051-.9403513,2.4786536-1.5159842.6028728-.5756235,1.0259135-1.1884722,1.2678349-1.8385272.2432087-.6500645.3436875-1.3013689.3027236-1.9526732-.0409638-.6525443-.183618-1.271583-.4255394-1.8583845-.4217535-1.0160322-1.0371199-1.8013114-1.8472349-2.3546073-.8100393-.5545358-1.7441816-.8597203-2.7999283-.9180237-1.0569582-.057073-2.1610891.1538227-3.3136044.6302072-1.1537267.4776245-2.0754512,1.1078317-2.7677478,1.8894008-.6922209.7815596-1.1164731,1.6636074-1.2728324,2.6473834-.1562835.9825361-.0099192,2.0159363.4391688,3.1002005.316353.7629612.7183439,1.3993773,1.20832,1.9117283M748.6492288,551.1057387l11.1651855-4.624864c.7182682-.2977356,1.4067788-.2902963,2.0655321.0235675.6599647.3138637,1.1463063.8485517,1.4588733,1.605304.3337683.8063764.3536066,1.5432808.0583792,2.2119532-.2953032.6686724-.7939869,1.1487672-1.4974142,1.4403033-.4502995.1860883-.9168027.2654889-1.4006456.2369524-.4837672-.0285365-.9254347-.1699602-1.3261384-.4255205-.3994922-.2543109-.7021401-.6277274-.9068836-1.12148l-.3882858-.9378715-1.6400683.6798314.5458565,1.3187369c.3684475.8882473.4081998,1.6983434.1216043,2.4302882-.2865955.7306955-.8150367,1.2554644-1.5866866,1.5755276-.4887646.2022164-.9676858.2741682-1.4378235.2171046-.4702135-.0570636-.8932542-.2344726-1.2679106-.5334481-.3758679-.3002154-.6748056-.7158168-.89439-1.2480155l-.6922966-1.6698163-1.6115224.667423.6798787,1.6412893c.36345.8783281.8609223,1.570568,1.4911295,2.0767195.630283.506161,1.3311358.8100961,2.1040729.914304.7716499.102968,1.5531432-.0086793,2.3446314-.3361913,1.0458275-.4329599,1.7678816-1.0892238,2.1685853-1.967552.3994165-.8783281.449088-1.8124894.1475759-2.8037048l.1464401-.0595528c.5359374.6016802,1.1859829,1.001144,1.9514239,1.1996407.7654409.1972474,1.5767675.1190961,2.4314808-.2344726.8001959-.3324716,1.4105648-.8076068,1.8286081-1.4278949.418119-.6190482.6476226-1.3236964.6872992-2.1127048.0396766-.7877685-.1128967-1.5978646-.4565084-2.4278085-.3523194-.8497916-.8262431-1.5333522-1.4204839-2.0519121-.5954523-.51732-1.2715451-.8349129-2.0295656-.9527597-.759232-.1178562-1.5557176-.0037291-2.3905927.3423908l-11.1651855,4.6248735.7158452,1.7293597ZM745.45473,538.4493858c.1203171-.5731532.4800569-.983776,1.0805067-1.2331368.440456-.1823497.8373738-.2084159,1.1921919-.0769113.3536066.1302552.6760928.3634879.9663985.6984488.2903057.3337115.5582744.7133275.8026946,1.138848.1016903.1761597.2320023.4056633.3932832.6909905.1612052.2853461.3336926.5768823.5173106.8758578.1835423.2989755.3622385.5570251.5359374.7741107.1724116.2171046.3175645.34488.4366701.3808559l-1.5829764.656264c-.4689263.1935372-.965187.2580401-1.4912053.1922973-.524731-.0657523-1.018493-.2791372-1.4824976-.6389054-.4639288-.3597588-.8373738-.8820478-1.1214706-1.5655989-.2853083-.6885107-.367236-1.3199673-.2468432-1.8931204M745.0217701,542.2641537c.3832884.3734165.7703627.638896,1.1624344.7964478.391996.1588012.7343963.2456411,1.027125.2617692l.0360421.0880798-1.5234614.6314471.7158452,1.7281293,7.4136238-3.0704336c.8944657-.3696874,1.54701-.8125759,1.9576328-1.3261762.4106228-.5135814.6562545-1.0457897.736895-1.5966058.0806405-.5520655.0670111-1.0805446-.0433868-1.5867055-.1091865-.5073914-.2394227-.9416006-.3882858-1.3026088-.2357125-.5669442-.550854-1.110302-.9453487-1.6301113-.3957062-.5198093-.8869696-.9453109-1.4737899-1.2777919s-1.2827515-.5024318-2.0878691-.512351l.0930584,1.8831823c.4899761.0210877,1.0122841.1910574,1.5680598.5098712.5545642.3188328,1.0036522.8919859,1.3460524,1.7169607.3299824.7964478.3758679,1.4738089.1376567,2.0333137-.236924.5582555-.7182682.9874862-1.4403223,1.2877111l-.0583034.0235675c-.2790993.1153765-.5148118.0980179-.7095605-.0533439-.1948244-.1513429-.4032024-.4317105-.626497-.8398725-.2232946-.408143-.5210965-.9353917-.891967-1.5829575-.2840968-.493762-.5918178-.9751062-.9193015-1.442802-.3287709-.4676959-.6947196-.8671691-1.1004207-1.1971515-.4056254-.3287519-.8621338-.5384172-1.3708124-.6252477-.5086029-.0868494-1.0842169.0037102-1.7293408.2704485-.7331848.3039351-1.2852502.7331658-1.6599067,1.2877111-.3733692.5557757-.575614,1.1797929-.6053715,1.8732632-.0310447.6934892.1016903,1.3968975.3969935,2.110225.2716789.6550241.5991625,1.1686149.9825266,1.5420315M740.3820274,531.1461221l7.1208951-2.9488482c.5086029-.2109146,1.0122841-.2754081,1.5122551-.1935372.5011825.0818709.9527692.2890564,1.3571831.6227679s.7195554.7728803.9453487,1.3199673c.0954814.2295225.1699129.4552969.2245061.6761117.0545932.2208338.0856379.3635068.0955571.4280003l1.7590982-.7282062c-.0310447-.1017282-.0831392-.2493608-.1575707-.4416486s-.1376567-.3523194-.1897512-.4788644c-.2791751-.6736319-.7034273-1.20832-1.2728324-1.6015843-.5694808-.3932643-1.1748523-.5781127-1.8162659-.5520465l-.0495958-.1178562,1.7008705-.7034083-.6922966-1.6710562-11.2532464,4.6620798.7158452,1.7281293ZM739.5433664,521.3306803c-.6537558.2704485-1.1338884.6475847-1.436612,1.1314086-.3039351.4825746-.4639288,1.0011345-.4800569,1.5544304-.0174153.5532959.075643,1.0743356.2778878,1.5631381.1339465.322543.2666815.5793432.4007037.7691512.132735.1910574.2456317.3361913.33869.4354397l1.4079903-.9949445c-.0458856-.0669922-.104189-.1575518-.1774091-.2704485-.0719328-.1128777-.1475759-.2642395-.2270048-.455278-.104189-.2543204-.163704-.5111206-.1774091-.7716499-.0136294-.2605104.0707213-.5136003.2531278-.7567522.1811193-.2443823.5173106-.4676959,1.0048637-.6699028l10.7260167-4.4425143-.7158452-1.7293597-11.1949429,4.6372819ZM747.3379313,516.1103262l-1.465158.6066398,2.4154284,5.8319535,1.4650823-.6066398-2.4153527-5.8319535ZM745.3269167,512.9121361c.2245818-.8398725.1054762-1.8162091-.3560296-2.9290099-.3274836-.7914882-.759232-1.4415527-1.2951694-1.9489441-.5371489-.5073914-1.1239693-.8386231-1.7603854-.9961749-.6376277-.1563214-1.2740439-.1029775-1.9079613.1600316-.7766473.3213126-1.3237154.8299344-1.6388568,1.5246729-.316353.6934703-.3832884,1.6065439-.2009576,2.7391829l.3374785,2.0568812c.1029018.6215185.0781418,1.1239503-.0745073,1.5072955-.1537848.3845756-.4254637.6575039-.8162482.8187848-.4826314.2009576-.9949445.1339843-1.5370908-.1997461-.5421463-.3337115-.9788164-.9031355-1.312509-1.7095024-.2940159-.7083679-.3796539-1.3435537-.2580495-1.9055383.1216043-.5632151.4527982-1.0482694.9936573-1.4551821l-1.0892144-1.4713291c-.8745517.5967206-1.4055673,1.3745605-1.5916083,2.3335197-.1873282.9577287-.0421753,2.0109767.4329599,3.1597439.3622385.873378.8261674,1.5804966,1.391938,2.1176644.5669064.5384172,1.179774.885777,1.8409502,1.0445782.6600404.1587822,1.3137962.1042079,1.9576328-.1625303.7865665-.3262532,1.3274256-.8398536,1.6239402-1.5395517.2965147-.7009286.3585283-1.6052945.1861167-2.7118863l-.2816738-1.8410259c-.1091107-.7331848-.104189-1.3075683.0161281-1.7231507.1191056-.4156013.3932832-.7120971.8237444-.8907366.4838429-.1997272.9776049-.1364641,1.4812861.189808.5048927.3250228.8993874.8324331,1.1847714,1.5221932.208378.5024318.2977262.94904.2703917,1.3373258-.0272588.3895541-.1252388.7294556-.2940159,1.0197613-.1687014.2902868-.3622385.5371678-.5805357.7418546l1.0817182,1.3720807c.6897979-.6004308,1.1475935-1.3212166,1.3720996-2.1610702M744.8121049,499.4034929l-15.0035208,6.2152987.7157694,1.7293597,15.0048081-6.2152987-.7170567-1.7293597ZM727.4266233,494.9262615c.1203928-.5731532.4801327-.983776,1.0817939-1.2331368.4391688-.1823686.8361623-.2071855,1.1909804-.0769113.3548181.1302552.6760928.3634879.9663985.6984488.2903057.3337115.5582744.7145579.8026189,1.138848.101766.1761597.2332895.4056633.3945705.6909905.1599937.2853272.3324811.5781127.5160233.8758578.1849052.2989755.3622385.5570061.5359374.7741107.1724873.2171046.3188517.34488.4366701.3808654l-1.5829764.6562545c-.4676391.1935372-.9651113.2580495-1.489918.1922878-.5260182-.0657428-1.0197045-.2778878-1.4837091-.638896-.4640046-.3597588-.8373738-.8820478-1.1202591-1.5655989-.2853083-.6885296-.3684475-1.3199862-.2481304-1.8931204M726.9936634,498.7410295c.3833641.3734071.7716499.638896,1.1624344.7976971.3920717.1575518.734472.2443823,1.0272007.2605104l.0359664.0880798-1.5233857.6314566.7157694,1.7293597,7.414911-3.071664c.8932542-.3696968,1.5457985-.8125759,1.9564213-1.3249269.4119101-.5136003.6575417-1.0470579.7381822-1.5978741.0805648-.5508161.0657239-1.0805446-.0434626-1.5866866-.110398-.5073914-.2406342-.9416006-.3894973-1.3026088-.234501-.5669442-.5496425-1.110321-.9453487-1.6301113-.395782-.5198093-.8870453-.9453298-1.4737899-1.2777919-.5868204-.3312506-1.2827515-.5024508-2.0879448-.5123699l.0943456,1.8832013c.4887646.0210877,1.0110726.1910384,1.5668483.5098712s1.0035764.8919859,1.3459767,1.7169607c.3299824.7964478.3759436,1.4738089.1377324,2.0332948-.236924.5582744-.7170567.9875051-1.4403223,1.28773l-.0583034.0235675c-.2790993.1153765-.5148118.097999-.7096362-.0533439-.1935372-.1513429-.4031267-.4317294-.626497-.8398725-.2232946-.408143-.5197336-.9353917-.891967-1.5829764-.2840968-.4937431-.5904549-.9750873-.9192257-1.4427831-.3275594-.4676959-.6947196-.8659197-1.1004207-1.195921-.4056254-.3300013-.8622095-.5384172-1.3708124-.6252477-.5073914-.0880798-1.0842926.0024798-1.7293408.2691991-.7319733.303954-1.2852502.7331848-1.6586952,1.2889604-.3746564.5545453-.575614,1.1785436-.6066587,1.8720328-.0297575.6934892.1029775,1.3968975.3982807,2.110225.2703917.6550241.597951,1.1686244.9812394,1.5420315M724.781767,485.6914123c-.655043.2704485-1.1338884.6475847-1.436612,1.1314086-.3039351.4825746-.4640046,1.0011345-.4813442,1.5544304-.0161281.5545453.0769303,1.0743356.2790993,1.5631381.1328107.322543.2667572.5793432.3994922.7703816.1340222.189808.2469189.3349609.3399015.4342092l1.4068546-.9949445c-.0446741-.0669922-.104189-.1575518-.1761976-.2704485-.0719328-.1128777-.1475759-.2642395-.2270048-.455278-.1054762-.2543204-.1649912-.5111206-.1786206-.7716499-.0124179-.2605104.0707213-.512351.2530521-.7567522.1823308-.2443823.5173106-.4676959,1.0060752-.6699028l10.7260924-4.4425143-.7170567-1.7293597-11.1937314,4.6372819ZM732.5762562,480.4710581l-1.4662938.6066398,2.4166399,5.8319535,1.4650823-.6066398-2.4154284-5.8319535ZM733.7957825,477.1364039c.3287709.1476137.655043.1538227.9775292.0198383.3225619-.132735.5483553-.3684475.67738-.7046388.1302363-.3374407.124103-.6748813-.0148409-1.0110726-.1402311-.3374407-.3746564-.5793621-.7047145-.7257454-.3286951-.1463833-.6549673-.1538227-.9775292-.0198383s-.5483553.3684475-.67738.7058881c-.1302363.3361913-.1240273.6736319.0149166,1.0098232.1401554.3374407.3746564.5793432.7046388.7257454M720.3144359,482.6991394l11.2532464-4.6608493-.7157694-1.7293597-11.2533221,4.6608493.7158452,1.7293597ZM722.9965458,467.0120485c.7343963-.0173585,1.3770214.1401933,1.9290868.471425.5520655.3324811.9738947.8497916,1.2654119,1.5532.3039351.7331848.369659,1.4192156.1972474,2.0605914-.1724116.6401453-.5272297,1.2132795-1.0643786,1.7194405-.5372246.506161-1.2021868.9229928-1.9923877,1.2504953-.8014074.3312506-1.5792662.5086408-2.3335007.5322082-.7543103.0235864-1.4229827-.1277754-2.0085158-.455278-.5843217-.3275215-1.0259892-.8522904-1.3262141-1.575537-.2865198-.6934892-.347322-1.3547033-.1823308-1.9836801.1662027-.6302072.5210208-1.2033604,1.0643786-1.7194405.544645-.5173106,1.2405762-.9527692,2.0903678-1.3038392.8411597-.3486092,1.6276505-.5309778,2.3608352-.5495857M710.801661,471.6691687l5.9498287-2.4637749.0595907.1463833c-.1513618.212145-.3349798.4987216-.5483553.8622095-.212164.3622385-.3498207.8113265-.4119101,1.3460145-.0620137.534688.0570919,1.1636648.3573168,1.8869115.3882858.9378904.9688973,1.667346,1.7429701,2.1871364.7729371.5210586,1.679745.8039061,2.7193635.8485612,1.0396186.0434247,2.1561674-.1811193,3.3470721-.6748813,1.1822727-.4887835,2.1239112-1.116511,2.8260513-1.8819519.7009286-.765422,1.1388101-1.6077743,1.3137962-2.5270379.1736231-.9192825.0645124-1.8521944-.3275594-2.7999851-.3039351-.7331848-.6649621-1.2629132-1.0842169-1.5904158-.418119-.3262721-.8275303-.540897-1.2269468-.6413758-.3994922-.1004977-.7232656-.1736799-.9701088-.2195844l-.0856379-.2059361,1.7876442-.7406241-.6922209-1.6698258-15.4724471,6.4088169.7157694,1.7293597ZM723.1590383,459.3949117c.2245818-.8398725.1054762-1.8161902-.3547424-2.9289909-.3287709-.7914882-.7605192-1.4415527-1.2964566-1.9489441-.5359374-.5074103-1.1226821-.8386421-1.7603854-.9961939-.6376277-.1563025-1.2728324-.1029586-1.9079613.1600316-.7766473.3213126-1.3224281.8299533-1.6387811,1.5246729-.316353.6934892-.3833641,1.6077932-.1997461,2.7392019l.3374028,2.0568623c.101766.6215374.0769303,1.1239693-.075643,1.5073144-.1525733.3845756-.4243279.6575039-.8150367.8187659-.4838429.2009765-.9962317.1339843-1.538378-.1997272-.5408591-.3337115-.9788164-.9031355-1.312509-1.7095214-.2940159-.7083679-.3795781-1.3435347-.2580495-1.9055194.1216043-.5632151.4527982-1.0482884.9949445-1.455201l-1.0904259-1.4713102c-.8746274.5967206-1.4055673,1.3745605-1.5916841,2.3335197-.1861167.9577287-.0421753,2.0109767.4329599,3.1597439.3622385.8733591.8262431,1.5804966,1.3931495,2.1176644.5656949.5384172,1.1785625.885777,1.8398144,1.0445592.6611762.1588012,1.3137205.1042079,1.9576328-.1625114.7864908-.3262721,1.3286371-.8386231,1.6251517-1.5395517.2952274-.7009286.3572411-1.6053134.1848295-2.7119052l-.2815981-1.841007c-.1091865-.7331848-.1042647-1.3075683.0161281-1.7231697.1191056-.4155824.3944947-.7120781.8237444-.8907176.4837672-.1997461.9775292-.1364641,1.4812104.189808.5048927.3250228.8994631.8324142,1.1847714,1.5221742.208378.5024318.2989377.94904.2704674,1.3373447-.0273345.3895352-.1253145.7294556-.2940159,1.0197613-.1687771.2902868-.3623143.5371678-.5806115.7418546l1.0830054,1.3720807c.6897979-.6004308,1.1463063-1.3212166,1.3708124-2.1610891M707.5861124,446.5623991c.1898269-.6624634.5570629-1.2467851,1.1028437-1.7529272.5458565-.506161,1.1946906-.9155534,1.9465022-1.2269468.7518116-.3113745,1.5023359-.4825746,2.2516488-.512351.7480256-.0297764,1.4266929.1215854,2.0332759.4540475.6066587.3324811,1.069376.8845276,1.3894392,1.6561775.3200632.771631.3821526,1.489937.1886154,2.1536308-.1948244.6637128-.5669821,1.2505142-1.1177603,1.7591361-.5495668.5086408-1.2008995.9180332-1.9539226,1.2294266-.7518116.3113745-1.4998372.4813252-2.2429411.5086218-.7443911.028546-1.4167737-.1252956-2.0196465-.4590071-.601737-.3349609-1.0619556-.8882568-1.3820188-1.6598877-.3200632-.7716499-.3845756-1.4874572-.1960359-2.1499206M708.0600361,451.7256803c.8001201.5644644,1.7231318.879568,2.7701708.9477906,1.0458275.0669922,2.15117-.1401744,3.3136044-.6215185,1.1723536-.4863037,2.1064959-1.1227199,2.8037142-1.9129777.6972183-.7890084,1.128891-1.6660967,1.2963809-2.6312648.1662027-.9639187.0396766-1.9551341-.3808654-2.9699358-.420542-1.0160322-1.0309109-1.806271-1.8311068-2.3707354-.8001201-.5644644-1.726842-.8783376-2.7775913-.9440804-1.0508249-.0645124-2.1623763.1451529-3.3347299.6302072-1.1623587.4825935-2.0903678,1.1165299-2.7825887,1.904289-.6922209.7865286-1.1214706,1.6636169-1.2889604,2.6275356-.1662027.9651681-.0396766,1.955153.3808654,2.9711852s1.0309109,1.806271,1.8311068,2.369505M699.0100542,431.2648434l6.7102722-2.7801278,3.3148159,8.000482-6.7115594,2.7801278.7530231,1.8162091,15.0035208-6.2140493-.7517358-1.8174395-6.681802,2.7677289-3.3135287-8.000482,6.6805147-2.7677289-.7518116-1.8162091-15.0048081,6.2140493.7530988,1.8174395Z"/>
    <path class="st9" d="M592.1588447,622.3025269c.2853461.6488246.6686724,1.1884722,1.1500165,1.6164725.4813442.4292402,1.0334096.7257359,1.6536977.8882473l.4280003-1.8286081c-.4292496-.1389439-.7914882-.3485997-1.0867535-.6264876s-.5210586-.6140886-.6785915-1.006113c-.1575707-.3932548-.246881-.8349034-.2679687-1.3261762-.0335056-.7555029.1029775-1.4254151.408162-2.0097273.3051466-.5855521.7691512-1.0507682,1.3919001-1.398128.6215374-.3473693,1.3931873-.540897,2.3112016-.5818324l1.0780458-.0471444c.6699217-.0285365,1.3050885.0893197,1.904289.3535687.5992004.2654794,1.0942118.6599836,1.4849963,1.1859829.3907467.5247689.6016613,1.1599451.6339175,1.904289.0297575.6761117-.1004788,1.2703526-.3895352,1.7839434-.2903057.5123605-.6984677.9167933-1.2256974,1.2120491-.5260182.2952558-1.1338884.4577672-1.8199383.4875436l-.3262721-7.478193-1.6164441.0707119.4093735,9.3800021.7927376-.034736c1.1351378-.0496242,2.0841589-.241912,2.8483505-.5768728.7629801-.3349514,1.3696009-.7654315,1.8199383-1.29392.4503373-.5272487.7679018-1.1053519.9527692-1.7318395.1835801-.6277369.2617598-1.2579536.2344631-1.8918805-.0471349-1.0979126-.357279-2.0469526-.9291828-2.8446402-.5719038-.7976971-1.344803-1.4043369-2.3186599-1.8199288-.9726075-.414352-2.0829095-.5954807-3.3296946-.5408875-1.2455357.0545838-2.3273297.3312317-3.2453439.828704s-1.6177313,1.1822633-2.1015363,2.0519121c-.4825935.8708793-.6984677,1.8918805-.6475847,3.0642246.0359664.8237349.195998,1.5606394.4813442,2.2094639M591.1974058,603.2857319l12.0732805-.5272392c.7766095-.0334961,1.4204461.2096558,1.9327971.7294556.5123888.5197998.7865286,1.1897121.8225329,2.0084874.0384273.8708888-.1960359,1.5705774-.7021779,2.0978166-.5061421.5272487-1.1400974.8076163-1.9005787.8411124-.4850544.0210877-.9502704-.0645124-1.3956482-.2568002-.4453399-.1922878-.8125759-.4763846-1.1003829-.8522714-.2890564-.3771362-.4453777-.8311932-.4689263-1.3646414l-.0446741-1.0147828-1.7740148.0781512.0620137,1.4254246c.0421753.9614484-.1972474,1.7368085-.7158073,2.3248404-.5198093.5892718-1.1959021.9018956-2.030815.9378715-.5284791.0235769-1.0036143-.0719518-1.4254057-.2865671-.4218292-.2146248-.7580205-.5260088-1.0098611-.9366411-.2505912-.4093924-.3882858-.9018956-.4130837-1.4775286l-.0793911-1.806271-1.743008.0756714.0781418,1.7752642c.040926.9502799.2716789,1.7715445.6910094,2.4613045.4192926.6909999.9738568,1.2170087,1.6636169,1.5792567.6909715.3609987,1.4638708.5235195,2.3198714.4863037,1.1301404-.0496242,2.0332759-.419321,2.7094065-1.1065918.6761307-.6885201,1.0420794-1.5507202,1.097922-2.5841204l.1587822-.0074488c.2965147.7493128.7716499,1.3472639,1.4229448,1.795112.6525443.4478481,1.4403223.6513044,2.3645454.6116088.8659197-.0384557,1.6015653-.276648,2.2069747-.7158168.6054093-.4391593,1.0619177-1.0222317,1.3683516-1.7504474.3064338-.7269853.4404182-1.540801.401953-2.4377371-.040926-.9192636-.2518406-1.7244001-.6339553-2.4129203-.3820769-.68976-.9093066-1.2207284-1.581727-1.5904158-.6711332-.3696968-1.4589112-.5359279-2.3620467-.4962324l-12.0745299.5272487.0818898,1.8695435ZM592.523582,590.3006272c.3088947-.4974723.7889895-.7604814,1.4378235-.7890084.4751352-.0210877.8572499.0905596,1.1462684.3349514.2878449.2443918.5111395.5731437.6699217.9862558.1575707.414352.2791372.8622001.3647373,1.3460335.0347549.1997272.0793911.460247.132735.7840394.0545932.3225525.1166069.656264.1873282.9999041.069472.3436401.1488631.6463448.2382112.9105843.0880609.2629996.1811193.43172.2790993.5073914l-1.7107518.074441c-.5073914.0223276-.996156-.0880798-1.4663316-.3287519-.471425-.241912-.8634589-.6103689-1.1761016-1.1078412-.3126049-.4974723-.4850544-1.1152711-.5173106-1.8546553-.0322562-.7443533.1054762-1.3658812.4143709-1.863344M590.8128302,593.737019c.2319644.4813442.5061421.8634399.8199963,1.1462968.3138921.2828474.6054093.4825841.8746274.5967112l.0049596.0955287-1.6487381.0719518.0818898,1.8695435,8.0178216-.3498396c.9664364-.0421753,1.730628-.2344726,2.2926126-.5768634.5619846-.3411603.9750683-.7579921,1.2393268-1.248025.2642585-.4912633.4317105-.9924553.5011825-1.5060556.0707213-.5136003.0967686-.966408.0793911-1.3571925-.0260473-.6128487-.1364452-1.2306475-.3299824-1.8546648-.1947865-.6240078-.5098901-1.1921919-.9478096-1.7045523-.4379194-.5135909-1.0333718-.9118242-1.7864327-1.1959116l-.5569872,1.8013209c.4527982.1873187.8857581.5259993,1.2988796,1.0147828.4130837.4900329.638877,1.1822727.6773422,2.0742492.0384651.8609602-.1501124,1.5135044-.5644455,1.9576234-.4156203.4441284-1.0135713.6835606-1.7951404.7170567l-.063263.0024798c-.3014742.0136483-.5173106-.0843602-.6475847-.292776-.1314856-.2084159-.2319644-.5433673-.3014364-1.0023839-.0707213-.4602565-.1699886-1.0582075-.2965147-1.7926322-.0992294-.5619846-.2220453-1.1190002-.3709462-1.6710562-.1488631-.552056-.357279-1.0520081-.6252477-1.501096-.2679687-.4478481-.626497-.8001769-1.0743356-1.0557277-.4478386-.2555603-1.0197424-.368457-1.7169607-.3374407-.7926997.0334961-1.4589112.2481114-1.9998082.6426157-.540897.3932643-.9440615.9118242-1.2095693,1.5532-.2667193.6413852-.3820769,1.3472734-.3485713,2.1176644.0310068.7083679.1624925,1.3026088.3957441,1.7851928M590.2558051,581.703434l7.7002571-.3362008c.5483174-.0235675,1.0445403.0880798,1.4862078.3362008.442879.2468716.7964478.5967112,1.0619177,1.0482789.2667193.4515772.4118722.9726169.4379194,1.5643685.0111685.2481209.0037481.4850638-.0210877.7120971-.0247979.2257839-.0434247.3709273-.0558047.4341998l1.9005409-.0831203c.0062089-.1054478.0074583-.2617598.0037481-.4676959-.0037481-.2059361-.0087077-.3783761-.0149166-.5160801-.0310068-.7282157-.2468432-1.3745605-.6475468-1.9390249-.4007415-.5657043-.9068836-.9453203-1.518464-1.1413278l-.0049974-.1265355,1.8373157-.0794006-.0781796-1.8062805-12.1687998.5309683.0818898,1.869553ZM592.8250184,572.1919368c-.708349.0310163-1.2877111.2220642-1.7380484.5719038-.4502995.3510795-.777821.7827995-.9825266,1.2976397-.2047057.5136003-.2964768,1.0346401-.2729283,1.5631286.0148787.3485997.0520945.6351763.1128967.8609602.0595528.224544.1166069.3994638.1699508.5235195l1.6623675-.4528076c-.0198383-.0794006-.0433868-.1836085-.0731822-.3151036-.0297575-.1302647-.0483843-.298985-.0583034-.5049116-.0111685-.2754081.0210877-.5371773.0967686-.7865286.0769303-.2493608.2419214-.4577767.4974723-.6252477.2543015-.1662405.645086-.2617692,1.1735651-.2853367l11.5981453-.5061515-.081852-1.869553-12.1043252.5284885ZM601.9345909,569.9526964l-1.5854751.069472.275427,6.3058489,1.5854373-.069472-.2753891-6.3058489ZM601.1381431,566.259495c.4974723-.7120876.7207669-1.6698069.667423-2.8744072-.0372158-.8560006-.2208338-1.6139927-.5508161-2.2739763-.3312317-.6599931-.7691512-1.1723441-1.3137583-1.5383213-.544645-.3647278-1.161185-.5321988-1.8472349-.5024318-.8398725.0372158-1.5271338.327512-2.0618218.8721287-.534688.5446072-.9093444,1.3795201-1.1252186,2.5059597l-.3858249,2.0481925c-.1166069.6190482-.3113934,1.0830244-.5867825,1.3906886-.275427.3089041-.6239983.4726554-1.0457897.4912633-.5235574.022337-.9813151-.2158553-1.3770592-.7145674-.3944947-.4987121-.6103689-1.1835126-.6488341-2.0543919-.0334677-.7666808.1029775-1.3931684.4094113-1.8794721.3076453-.4875531.7840299-.8299533,1.4316146-1.0272007l-.5210208-1.7554164c-1.0259892.2617598-1.7901808.811336-2.2926126,1.6487287-.5036812.8361433-.7282252,1.8757524-.6736319,3.1163286.0409638.9453203.2357125,1.7678154.5830723,2.467504.3486092.6984393.8063669,1.2356166,1.3720996,1.6102635.5669442.3746564,1.1996123.5470964,1.8968307.5160801.8497916-.0372158,1.5333427-.3337115,2.0519027-.8907271.5185599-.5570251.8857959-1.385729,1.1016322-2.4848815l.3647373-1.8261283c.1488631-.7257359.3498585-1.2641436.60416-1.6139832.2555508-.3498491.6153285-.534688,1.0792952-.5545358.5235195-.022337.965187.2046867,1.3274256.6835511.3622385.4801043.5594859,1.0917131.5929915,1.8360569.0235864.5433673-.0446741.9936951-.2034563,1.3497437-.1587822.3572884-.3671981.6426157-.6252477.8572405-.2580495.2146154-.5247689.3808559-.800158.4987121l.5495668,1.6598877c.8535019-.3287519,1.5283832-.8485517,2.0271048-1.5618887M591.941759,551.9717814c-.7083869.0310163-1.2864996.2220642-1.7368369.5719038-.4502995.351089-.7790703.7828089-.983776,1.2976492-.2046678.5136003-.2964768,1.03588-.2729283,1.5631191.0149166.3486092.0533439.6351763.1128967.8609602.0608022.224544.1166069.3994732.1699508.523529l1.6624054-.4528076c-.0186268-.0794006-.0434247-.1836085-.07322-.3151131-.0285081-.1302552-.0483843-.2989755-.0570541-.5049116-.0124179-.2741682.0198383-.5371678.0967686-.7865286.0756809-.2493513.2419214-.4577672.4962229-.6240078.2543015-.1674804.6463353-.2629996,1.1736029-.2853272l11.5981453-.5074009-.0806405-1.8695435-12.1055367.5284791ZM601.0512937,549.7325411l-1.5842258.069472.275427,6.3058489,1.5841879-.0682321-.2753891-6.3070888ZM588.6368623,544.6226132l7.7002571-.3362008c.5483174-.0235675,1.0445403.0880798,1.4862078.3362008.442879.2481114.7964478.5967112,1.0619177,1.0482884.2667193.4515678.4118722.9738474.4379194,1.564359.0111685.2481209.0037102.4863132-.0210877.7120971s-.0434247.3709273-.0558047.4341998l1.9005409-.0818804c.0062089-.1066877.0074583-.2629996.0037102-.4689357-.0037102-.2059361-.0086698-.3783761-.0148787-.5148402-.0310068-.7294556-.246881-1.3758004-.6475847-1.9402648-.4007037-.5656949-.9068457-.9453109-1.518464-1.1400879l-.0049596-.1277754,1.8373157-.0794006-.0781796-1.8062805-12.1687998.5309683.0818898,1.869553ZM588.4284464,536.860333c.2853083.6488151.6686724,1.1872323,1.1500165,1.616463.4813442.4280003,1.0333718.724496,1.6536599.8882568l.4280003-1.8286081c-.4292496-.1401933-.7914882-.3498396-1.0867535-.6277274-.2952274-.2778878-.5210208-.6128487-.6785915-1.006113-.1575329-.3920149-.2468432-.8336635-.2679687-1.3249269-.0334677-.7555218.1029775-1.4254246.408162-2.0109767.3051845-.5843217.7691512-1.0507682,1.391938-1.398128.6215374-.3473598,1.3931495-.540897,2.3112016-.5805925l1.0780458-.0471349c.6699217-.0297764,1.3050885.0880798,1.904289.3535498.5992004.2642395,1.0941739.6599836,1.4849585,1.1847525.3895352.5259993.6016991,1.1599357.6339553,1.9055194.0297575.6761307-.1005167,1.2703526-.389573,1.7827225-.2902679.512351-.6984298.9167838-1.2256596,1.2120302-.5272676.2964957-1.1338884.4590261-1.8199383.4888025l-.3262721-7.478193-1.6164819.069472.4094113,9.3799832.7927376-.0334866c1.1350999-.0496336,2.0841589-.2419214,2.8483505-.5768634.7629422-.3349609,1.3696009-.7666903,1.8199383-1.29392.4502995-.528498.7679018-1.1053614.9527313-1.7330888.183618-.626497.2617598-1.2567043.234501-1.8906406-.0483843-1.0991524-.3573168-2.046962-.9292206-2.8446402-.5719038-.7976971-1.3447652-1.4043369-2.318622-1.8199193-.9726075-.4156013-2.0829474-.5954902-3.3296946-.540897-1.2455736.0533439-2.328579.3299824-3.2453818.8274546-.9180142.4987216-1.6176934,1.1822727-2.1015363,2.053152-.4825557.8696489-.6984298,1.89189-.6475468,3.0642246.0359664.8237444.195998,1.5594089.4813442,2.2094734M595.9450856,517.5842675c.6947196.2344631,1.2455357.6016802,1.651199,1.1028627.4056633.499952.6252477,1.1314086.6575039,1.8918711.0347549.7927376-.1376946,1.4601606-.5185599,2.0035373-.3820769.5421274-.9105938.9602085-1.5891853,1.2517447-.6773422.2915362-1.4440325.4552969-2.3000331.4925127-.8659197.0384462-1.6574079-.0608022-2.3744646-.2964957-.7170188-.2357125-1.29392-.6078891-1.7305901-1.1152805-.4379194-.5073914-.6736319-1.1524963-.708349-1.9340654-.0322562-.7493128.1364452-1.391919.5073914-1.9266071.3709083-.534688.9006368-.9515198,1.587936-1.2517447.6885107-.3002249,1.4924168-.4701756,2.410431-.5098712.9093444-.0397145,1.7107518.0570541,2.4067208.2915362M587.4533402,517.5259452l1.869534-.0818709.0099192.2220642c-.2158363.1476327-.4863037.3547992-.8100772.6227679-.3250228.2679687-.6066587.6426251-.8485423,1.1251997-.2406721.4813442-.3436496,1.1128008-.310144,1.8943698.0446362,1.0135524.3411509,1.89808.8894683,2.6523524.5496046.7530231,1.3050885,1.328656,2.2665275,1.7256305.9614768.3982239,2.0866576.5681936,3.375618.5123699,1.2790413-.0558426,2.3781748-.3237923,3.2986878-.8039061.9217623-.4788644,1.6214415-1.1202401,2.0990755-1.9241273.4775961-.8038871.6947196-1.7194405.6500456-2.7429121-.0347171-.7927376-.1922878-1.4142561-.4738859-1.8645934-.2816359-.4515678-.5929915-.7914882-.9341802-1.0234715-.3411509-.2307529-.6202881-.4106228-.8373738-.5384172l-.0062089-.1587822,5.9895053-.2617598-.0818898-1.869553-16.2254702.7083679.0793911,1.806271ZM603.3476166,509.2426346l-16.225508.7083679.0818898,1.869534,16.2254702-.7083679-.081852-1.869534ZM591.1229742,496.1235266l.3622385,8.3019373,1.743008-.075662-.3622385-8.3031867-1.743008.0769113ZM600.3640324,499.8154787l.0049596.126545-13.4453802,5.4448982.0893103,2.059342,15.9649976-6.6655982-.0880988-2.0283541-16.4860184-5.2488812.0905596,2.059361,13.8696703,4.2526874Z"/>
    <path class="st9" d="M315.2406882,452.912534c.4676959-.5322082.793968-1.1078412.9788164-1.7256495s.2208148-1.243056.1054384-1.8745125l-1.8372778.3845945c.0545743.449088.0186079.8659197-.1091675,1.2504953-.1277943.3845756-.3362102.7319354-.6252666,1.040849-.2890564.3076643-.6512949.575614-1.0879839.8026378-.6711522.3498585-1.334846.5098901-1.9948486.4801137-.6587343-.0297764-1.2765426-.25309-1.8546553-.6699217-.5781127-.4180622-1.0792952-1.0346401-1.5035853-1.8509262l-.4987027-.9564983c-.310144-.5954713-.471425-1.2207189-.4838239-1.875743-.0136483-.6537747.1352148-1.2691032.4466082-1.8459855.3113745-.575614.7964478-1.0358705,1.4576808-1.3807505.6004308-.3113934,1.1946717-.4453777,1.7814542-.3994732.5868015.0459045,1.1264491.2456317,1.6164819.59797.4900329.3523194.8944468.8336635,1.2120302,1.4440325l-6.6408003,3.4562396.7480635,1.4340944,8.3280035-4.3345583-.3659677-.7034083c-.5260182-1.0085928-1.1004018-1.7876821-1.7268988-2.3372488-.6264781-.5508161-1.2740628-.9180332-1.9427352-1.104112-.6686724-.1848484-1.3261762-.2282731-1.9725116-.1302552-.6451049.097999-1.2504953.2927666-1.81248.5855521-.9763366.5086218-1.7045618,1.1897121-2.1859059,2.0456937-.4813442.8547702-.7046388,1.8124989-.6699028,2.8694571.0359664,1.0582075.3411509,2.1400015.9167838,3.2465933.5768634,1.1065918,1.2840009,1.9700318,2.122624,2.5915692.8386231.6215185,1.7554069.9663985,2.7478717,1.0371199.9937141.069472,2.0109767-.1662405,3.0518257-.7083679.730705-.3808654,1.3311358-.8373927,1.7988316-1.3696009M298.4110391,461.8211111l-5.5801129-10.7198266c-.3585283-.68976-.4106418-1.3757909-.155072-2.0605914.2543204-.6835511.7455837-1.2145289,1.4713102-1.5928956.7741297-.4031835,1.5073144-.4863037,2.1995543-.2505912.6909905.2356936,1.2132795.6909905,1.5643685,1.3658718.224544.4317105.3436307.8894872.3585283,1.3745605.0136294.4838239-.0893292.9366221-.3089136,1.3584324-.218335.420542-.5644644.7542535-1.0383692,1.0011345l-.9006557.4689452.8212646,1.5755181,1.265393-.6599836c.8535208-.4441284,1.6574079-.5545263,2.410431-.3337115.753042.2220642,1.322466.7034083,1.708272,1.4440325.2431519.4689452.3572979.9403513.3424002,1.4130067-.0161281.4739048-.1575518.9105938-.4230218,1.3112975-.2642585.3994732-.6537936.7331848-1.1636648.9986737l-1.6040641.834894.8051365,1.5482404,1.5755181-.8200152c.8448321-.4403992,1.4911863-.9949445,1.9402743-1.667346.4478386-.6711332.6909905-1.3968786.7269758-2.1747185.034736-.7790893-.1439035-1.5482404-.5396476-2.3074724-.5222891-1.0036332-1.2393457-1.6660967-2.1486902-1.9886397-.9093444-.3225619-1.8447361-.2903057-2.8049447.0967686l-.0731822-.1401933c.5532959-.5855521.8944468-1.2691032,1.024702-2.0494418.1302741-.7790703-.0186079-1.5804777-.4453588-2.4005118-.4007037-.7691512-.926703-1.334846-1.5804966-1.6983339-.6537747-.3622575-1.3757909-.5297284-2.1647993-.499952-.7902578.0297575-1.5829764.2518217-2.3806735.6661736-.8150557.4255205-1.455201.9564983-1.9191677,1.5941449-.4627363.6376655-.7207669,1.3398245-.771631,2.1052655-.0521134.765422.1314856,1.5494708.5483363,2.3508782l5.580094,10.7198266,1.6599067-.8634399ZM286.0821888,466.1060546c-.5818419-.069472-1.0222411-.3920149-1.322466-.9688783-.2195655-.4230407-.2803676-.816305-.1811193-1.1797929.0992484-.3647373.3039351-.7071375.6115994-1.0247209.3076643-.3188328.6624824-.6178083,1.0656658-.8994064.1649912-.1153765.3833262-.2667383.6537747-.4515867.2704485-.1860789.5458565-.3833262.8274735-.5917421.281617-.2096652.5222891-.4093924.724496-.6004498.2009765-.1910384.3151036-.3473598.3411509-.4689263l.7914882,1.5196944c.2344821.4503373.3411698.9391208.3213126,1.4688493-.0198383.5284791-.1885586,1.0395996-.506161,1.5333617-.3188138.4924937-.8063669.9105749-1.4626404,1.2517257-.6612141.34488-1.2827515.4825935-1.8645745.4118722M289.9205242,466.205303c.3374407-.414352.5681936-.8237444.6922398-1.2281583.1240652-.4032024.1811382-.7517926.1712001-1.0458086l.0843696-.0434247.7617118,1.4626404,1.6598877-.8634399-3.7056004-7.1184342c-.4466082-.8584804-.9440804-1.4700797-1.4911674-1.834817-.5471059-.3647183-1.0991524-.5632151-1.6561775-.5954713-.5557757-.0322562-1.081775.028546-1.5767675.1823686s-.9155534.3200632-1.2629132.5012014c-.5446072.2828474-1.0582075.6438555-1.540801,1.0842548-.4838239.4391688-.8659197.9651681-1.145038,1.5792472-.2791372.6128487-.3895541,1.3212166-.3287519,2.1238734l1.8683036-.2568002c-.022337-.4900329.1017282-1.0247209.3709273-1.6065439.2691991-.5805925.8001769-1.0780648,1.5928956-1.489937.7642105-.3982239,1.4353627-.5036623,2.0134565-.3151036.5768823.1873282,1.0470579.6289768,1.4080661,1.3224471l.0297764.057073c.1389439.2667193.1414237.5036812.0074394.7108477-.1339843.2071855-.3945137.4391688-.781569.6971994-.3870554.2580495-.8870074.6004498-1.4986068,1.0259703-.4677148.3275026-.920513.6748624-1.3584324,1.0420794-.436689.3684475-.8026567.7679207-1.0954422,1.2008806-.2927666.4329599-.4614869.9056153-.5036623,1.4192156-.0421753.5148308.097999,1.0805446.4193116,1.6995833.3672171.7034083.8423523,1.2170087,1.4279044,1.540801.5867825.3237923,1.2256785.471425,1.9191677.4403992.6934892-.0297764,1.3832492-.2232946,2.0680497-.5793432.6277274-.3275215,1.1115514-.6984488,1.4502225-1.1128008M279.2490818,471.7953351l-3.5591982-6.8368172c-.25309-.4875342-.3610081-.983776-.3237923-1.489918.0384462-.5049116.2046867-.9738568.5024318-1.4055863.2964957-.4317105.7071186-.7840299,1.2331368-1.0569582.2195844-.1153765.4379194-.2084159.6525443-.281617.2158553-.0732011.3547992-.1178562.4180622-.132735l-.8783187-1.6884337c-.0992484.0396956-.2406721.1042079-.4255205.1947676-.1860978.0905786-.3399204.1674899-.4615058.2307529-.6463353.3374407-1.1413278.8063859-1.483728,1.4080471-.3436307.6016802-.4738859,1.2207378-.3920149,1.857154l-.1128967.0583034-.8497916-1.6313607-1.6028147.8349129,5.6235187,10.8041773,1.6598877-.8646893ZM269.5440569,473.4862486c.3262721.6289768.7443533,1.0731052,1.2517447,1.3336156.5073914.25928,1.0383692.3746564,1.5916651.3424002.5520465-.0310068,1.0631671-.1687203,1.5321123-.4131026.3088947-.161281.5532959-.316353.7319354-.4664654.1786395-.1488631.3126238-.2741587.4031835-.3746564l-1.1140312-1.3162381c-.0620326.0508641-.1476327.1178373-.253071.1997272-.1067067.0818709-.2506102.1712001-.4342092.2654889-.2431519.1277754-.4949925.2084159-.7530231.2456317-.2580495.0359664-.5173295-.0260662-.7766095-.1860978s-.5111206-.4751352-.7542724-.9440804l-5.3605285-10.2980164-1.6598877.8646893,5.5949917,10.7471043ZM263.6637381,466.176776l.7331658,1.4068167,5.5987208-2.9141122-.7319354-1.4068167-5.5999513,2.9141122ZM260.6540877,468.4594316c-.8559817-.1501124-1.81867.0533439-2.888046.6091196-.759232.3957441-1.3683705.8820478-1.8273776,1.4614099-.4590071.5781127-.7381443,1.1921919-.8386231,1.8397766-.1017282.6488151.0074394,1.2777919.3250228,1.8869115.3870554.7455837.9416006,1.2455357,1.6611371,1.4998561s1.6350709.2419025,2.7466412-.0396956l2.0196465-.5148497c.6103689-.1563025,1.1128008-.1749103,1.5085449-.0570541.3957441.1190867.6909905.3659677.885777.7418546.2419025.4639856.2208148.9800658-.0645124,1.5482404-.2853461.569424-.8150557,1.0544973-1.587936,1.4576808-.6810902.3535687-1.3063379.4949925-1.8769923.4230407-.5706734-.0732011-1.0830244-.3610081-1.5358415-.8634399l-1.3708314,1.2132795c.6711522.8187848,1.4924168,1.2802717,2.4637749,1.3819999.9701277.1029586,2.0072665-.132735,3.1088987-.7071375.8398536-.4366701,1.5023359-.9601896,1.9886397-1.5718079.4875342-.61035.7803197-1.2517447.8807985-1.9241273.1004977-.6711522-.0111496-1.3174875-.3337115-1.9365451-.3920149-.7542724-.9515198-1.249246-1.6747665-1.4824787-.7232656-.2344821-1.6301303-.2171046-2.7181142.0508641l-1.8087508.4403992c-.7207858.1736799-1.2926896.218335-1.7182101.1352148-.4242711-.0831013-.7443343-.3312317-.9589592-.7431039-.2406721-.4652161-.2220642-.9626883.0595528-1.4923978.2803676-.5309778.7517926-.9688973,1.4130067-1.3125468.4825935-.2518217.9192636-.3808464,1.3100481-.3870554.3895541-.00619.7369139.0620326,1.040849.2047057.3027047.1426541.5669442.3138543.7902388.5136003l1.2716019-1.1984008c-.6587532-.6339364-1.4155054-1.0272007-2.271506-1.1773131M248.8140399,484.9082342c-.6364162-.0831203-1.2219683-.3498396-1.7579057-.8014074-.5359185-.4515678-.9986547-1.0520175-1.3894392-1.8025608-.3808654-.730705-.6115994-1.4576808-.6922398-2.1784477-.0806405-.7207858.0198383-1.3807694.3014553-1.9799699.2803676-.5992004.7728803-1.081775,1.4762887-1.448992.6748813-.351089,1.3311358-.477615,1.9663215-.379616.6351668.0992484,1.2244481.3845756,1.7690552.8584804.5446072.4726554,1.0197424,1.0991524,1.4254246,1.8769923.414352.7976971.6512949,1.5445113.7095984,2.2417296.0595528.6959501-.0620326,1.3162381-.3634879,1.8608642-.300206.5433578-.7840488.9887356-1.4502225,1.3360954-.6934892.3610081-1.3584324.499952-1.9948486.4168318M256.0949855,488.7614673c.5619657-.6413758.9018861-1.363392,1.0172626-2.1660487.1166069-.8014074-.0669922-1.6673271-.5508161-2.5952794l-5.7847997-11.1143214-1.6040641.834894.8932164,1.7169607-.1687203.0880798c-.2195844-.1240463-.5173295-.2754081-.8919859-.4527982-.3758869-.1761786-.8311838-.2729283-1.3671022-.2890564-.5359374-.0161281-1.1549761.1587822-1.8583845.5247499-.9105938.4739048-1.5941449,1.1177603-2.053152,1.9315856-.4577767.8138252-.6674419,1.7330888-.6289768,2.7590402.0396956,1.0247209.3473598,2.0916172.9229928,3.198209.5867825,1.1251997,1.2852313,1.9774711,2.0953274,2.5568332.8113265.5780938,1.6698069.8944468,2.5766715.9465413.9068647.0533628,1.7963519-.1476137,2.6684805-.6016613.7034083-.3659866,1.2046098-.7691701,1.5035853-1.2070895.2989755-.4391688.4850544-.8609602.5570061-1.265393.0732011-.4044139.1191056-.736895.1377135-.9961749l.1414237-.0744315,1.1425772,2.1945757c.4676959.9006557.5284791,1.7095214.1811193,2.4278085-.3473598.7170567-.9577287,1.3026088-1.8298574,1.7566563-.6512949.3386711-1.2281583.5185599-1.7268799.5371678-.499952.0186079-.9316626-.0396956-1.29392-.1761597-.3634879-.1352337-.6711522-.2630091-.9242232-.3820958l-.8386231,1.616463c.420542.2580495.9080951.4528171,1.4626404.5855521.5532959.1315046,1.1723346.1488631,1.8558857.0521134.6823207-.0955381,1.4254246-.3523383,2.2268319-.7704005.8622095-.449088,1.575537-.9937141,2.138771-1.6363203M237.4156217,477.1322962c.1178562-.3411509.0955192-.6661926-.0645124-.9763366-.161281-.3088947-.4155824-.5135814-.7629612-.6128298-.3461105-.1004977-.6810713-.0657617-1.0048637.1029586s-.5446072.4230407-.6612141.7641916c-.1178562.3411698-.0955381.6661926.0657428.9763366.1600316.3089136.414352.5136003.7617118.6128487.3461294.1004788.6810713.0657428,1.0048637-.1029775.3237923-.1687014.5446261-.4230218.661233-.7641916M244.1321029,490.076475l-5.6235376-10.8041773-1.6611371.8646893,5.624787,10.8041773,1.6598877-.8646893ZM228.4834771,487.9240746c.0099192-.5656949.161262-1.0706254.4577767-1.5159842.2952464-.4466082.7071186-.8076163,1.236847-1.0830244.7691512-.4007037,1.4986068-.477615,2.1871364-.2307529.6885107.246881,1.2529751.793968,1.6958731,1.6425292l3.514543,6.7524665,1.6598877-.8634589-3.5740958-6.8653442c-.477615-.9192636-1.0259513-1.6003349-1.645009-2.0444633-.6178083-.4441284-1.2790224-.6724015-1.9824307-.6835511-.7046577-.0124179-1.4216954.1712001-2.1536498.5520465-.8150557.4255205-1.3943988.9391208-1.7355686,1.5432808-.3411509.60416-.4962229,1.2455357-.4627363,1.9266071l-.1414237.0732011-.8783187-1.6884337-1.6040641.8349129,5.6247681,10.8041773,1.6598877-.8646704-3.3842878-6.4993955c-.3262721-.6277274-.4850733-1.2244481-.4751352-1.7901429M219.1493795,486.6276748c.0942888-.3374407.0645124-.6550241-.0893292-.9502894-.167471-.3237923-.414352-.5359185-.7393748-.638896-.3237923-.1017282-.6475847-.069472-.971377.0992484-.2952464.1538416-.5011825.3969935-.6178083.7282252-.1166069.3324621-.0905596.6599836.0781607.9825266.1538227.2964957.4031835.4987216.7493128.6066398.3461105.1091865.6661926.0868494.961439-.0669922.3237923-.167471.5334576-.4217914.6289768-.7604624M215.0976497,488.7366504c.0942888-.3374407.0657617-.6550241-.0880798-.9502894-.1687203-.3237734-.4155824-.5359185-.7393748-.638896-.3250417-.1017282-.6488341-.069472-.9726075.0992484-.2952653.1538416-.5012014.3969935-.6178083.7282252-.1166258.3324811-.0905786.6599836.0781418.9825266.1538416.2965147.4044328.4987216.7493128.6078891.3461294.1079371.667423.0856001.9626883-.0682226.322543-.1674899.5322082-.4218103.6277274-.7604814M220.2720994,500.1635957c-.6761117-.1302552-1.2902098-.4453588-1.8422564-.9453109-.5520655-.4987216-1.0160322-1.110321-1.391919-1.8323372-.3759058-.7220162-.6103689-1.4539516-.7058881-2.1983049-.0942888-.7431039-.0024798-1.4316146.2754081-2.0643206.2778878-.6339364.787759-1.1438076,1.5283832-1.5296136.7406241-.3845945,1.4502414-.5098901,2.1288329-.3746564.6785915.1352148,1.2951505.455278,1.8496957.9589592.5545263.5049116,1.0197424,1.1177603,1.3956482,1.8397766.3758869.7220162.6091196,1.4527212.702159,2.1908466.091809.7381443-.0012304,1.4229448-.2828474,2.0506722-.2803676.6289768-.7902388,1.1363682-1.5321123,1.5221932-.7406241.3858249-1.448992.5136003-2.1251038.3820958M225.3758278,499.2418523c.4912633-.8460814.7257454-1.7938721.7009286-2.8421604-.0235675-1.0482884-.3262721-2.1300634-.9068647-3.2465933-.5867825-1.1251997-1.3026088-2.0010386-2.1499206-2.6262863-.8473119-.6252666-1.7591361-.9800658-2.7342233-1.0619367-.9750873-.0818898-1.9514239.1302552-2.9265301.6376466-.9750873.5086408-1.7095024,1.1847525-2.2007658,2.0320644-.4925127.8460814-.7257454,1.7951214-.6984488,2.8483694.0260473,1.053248.3324621,2.1424812.9180142,3.2676809.5818419,1.116511,1.29392,1.9849105,2.1387521,2.6051986.8448321.6215374,1.7554259.9726264,2.7305131,1.0557277.9763366.0818898,1.9514239-.1314856,2.9265301-.638896.9750873-.5073914,1.7095024-1.1847336,2.2020151-2.030815M207.5251869,509.132956l-2.4315376-4.6707685.7468331-2.9624965,8.4929758,4.0889455,2.110225-1.0991524-10.1640509-4.7563686,2.6660007-9.6479519-2.2789264,1.1859829-2.7516008,10.515121-.1687203.0880798-3.7204981-7.1469612-1.7442384.908114,7.4992806,14.4055698,1.7442574-.908114Z"/>
    <path class="st9" d="M225.4089547,384.0269379c.0086887-.5657138.161262-1.0718558.4565273-1.5172336.2964957-.4453399.7083679-.8063669,1.2380964-1.0817561.7691512-.4007037,1.4986068-.4776339,2.1871364-.2307529.6885107.2456317,1.2529751.7939491,1.6958731,1.6425103l3.514543,6.7524476,1.6598877-.8646704-3.5740958-6.8641138c-.477615-.9192636-1.0259513-1.6015653-1.645009-2.0444444-.6190387-.4441284-1.2790224-.6724204-1.9836801-.6848005-.7034083-.0124179-1.4204461.1724116-2.1524004.553277-.8162861.4242901-1.3943988.9391398-1.7355686,1.5420504-.3411509.60416-.4962229,1.2467851-.4639667,1.9266071l-.1401933.0731822-.8783187-1.6871843-1.6040641.8349129,5.6247681,10.802928,1.6598877-.8634399-3.3842878-6.4993765c-.3262721-.6289579-.4850544-1.2256785-.4751352-1.7901429M222.3199133,395.7851148c.4676959-.5322082.793968-1.1078412.9800658-1.7256305.1848295-.6178083.2195655-1.2418255.1054384-1.8745125l-1.8385272.3845756c.0545743.449088.0186079.8659197-.1091675,1.2504953-.126545.3858249-.3349609.7319354-.6240172,1.040849-.2902868.3088947-.6525443.5768634-1.0879839.8038871-.6711522.3486092-1.3360954.5086408-1.9948486.4788644s-1.2777919-.253071-1.8559047-.6699028c-.5768634-.4180811-1.0780648-1.0346401-1.5035663-1.8497147l-.4974723-.9577098c-.310144-.5942408-.471425-1.2194885-.4850733-1.8745125-.0123989-.6550241.1364641-1.2703526.4466082-1.8472159.3113934-.5756329.7976971-1.0358894,1.4589112-1.3795201.6004498-.3126428,1.1934412-.4453777,1.7814731-.3994732.5868015.0459045,1.1251997.2444012,1.616463.5967206.4900329.3535687.8944657.8349129,1.2108187,1.4440325l-6.6395698,3.4562396.7468331,1.4353437,8.3279846-4.3358076-.3659677-.7034083c-.5247689-1.0085928-1.1004018-1.7876631-1.7268799-2.3372488-.6252666-.5508161-1.2728324-.9180332-1.9415047-1.1028627-.6686724-.1860978-1.3261762-.2295225-1.9725305-.1315046-.6463353.097999-1.2504953.2940159-1.8137104.5867825-.9750873.5074103-1.7033124,1.1897121-2.1846566,2.0444822-.4813442.8559817-.7046577,1.81248-.6699217,2.8694381.0347549,1.0582265.3411698,2.1400015.9168027,3.2465933.575614,1.1065918,1.2839819,1.9712811,2.122624,2.5915692.8386231.6215185,1.7541765.9676479,2.7478717,1.0371199.9924647.0707024,2.0097273-.1662405,3.0505763-.7071375.7319354-.3808464,1.3311358-.8386231,1.7988316-1.3708314M201.7834144,396.3247624c.0173775-.5681746.1798888-1.0792952.4887835-1.5333427.310144-.4528171.7369139-.8212646,1.2802907-1.104112.7827995-.408162,1.5196944-.4912822,2.2082241-.2506102.6872803.2406721,1.2554549.7902578,1.7020631,1.6487381l3.5157924,6.7524476,1.6598877-.8646704-3.5740958-6.8653632c-.4838239-.9279523-1.0358894-1.6139832-1.6561775-2.0568623-.6215185-.4416486-1.2839819-.6661926-1.9898701-.6711522s-1.4279044.1835991-2.1635689.5669442c-.8485612.4416486-1.4415527.961439-1.777744,1.5569102-.3374407.5954902-.4863037,1.2380964-.449088,1.9278564l-.1414237.0732011-2.7528502-5.2898261-1.6598877.8634589,7.4980502,14.4055698,1.6611182-.8634589-3.3842878-6.4993765c-.3262721-.6289579-.4813442-1.2269279-.4652161-1.7963519M199.0901171,407.7442682c.4478575-.6115994.7232656-1.2678728.8262242-1.967552.1042079-.7009286.0359853-1.3943988-.2022069-2.0816791l-1.6598877.8646704c.1017282.4478575.1042079.8758578.0074394,1.2840009-.097999.408143-.2828474.7790893-.5570251,1.1115514-.2729093.3337115-.6264781.6128487-1.0569582.8373927-.6575039.3411509-1.3174875.4676959-1.9799699.3783856-.6636939-.0905786-1.2889604-.3759058-1.8769923-.8572499-.5867825-.4800948-1.0979031-1.138848-1.5321123-1.9725116-.4242711-.816305-.6599836-1.5978551-.7071186-2.3459375-.0459045-.7480635.0856001-1.4154865.3969745-2.0035184.310144-.5880319.7890084-1.0495377,1.4365931-1.3869784.7319354-.3808464,1.4142561-.4924937,2.0469431-.3361913.632706.1563214,1.1400974.4478575,1.5234425.873378l1.6598877-.8634589c-.4453777-.6264781-.9949445-1.0916942-1.6474888-1.3956482-.6525443-.3039351-1.3571831-.4379194-2.1139353-.4019341-.7555218.0359664-1.5135044.2518406-2.2727364.6475847-.9763366.5073914-1.7045618,1.1897121-2.1859059,2.0444633-.4813442.8560006-.7058881,1.8100002-.6723826,2.8632481.0322562,1.0520175.3337115,2.1275836.9056153,3.2242562.5607353,1.0792952,1.2567043,1.9352958,2.087888,2.5704815.8311838.6339364,1.736818.9999041,2.7168648,1.0966727.9812962.097999,1.9774711-.1166258,2.9897931-.6438745.7976782-.4155824,1.4204461-.9279523,1.8670543-1.5395517M182.3336691,416.7483646l-5.5801129-10.7198077c-.3585283-.6885296-.4106418-1.3758099-.155072-2.059361.2543204-.6848005.7455837-1.2157593,1.4725595-1.5941449.7728803-.4019341,1.5060651-.4863037,2.1983049-.2505912.6909905.2357125,1.2132795.6922398,1.5643685,1.3671211.224544.4317105.3436307.8894872.3585283,1.3733111.0136294.4850733-.0893292.9378715-.3076643,1.3584324-.2195844.4205609-.5657138.7542724-1.0396186,1.0011534l-.9006557.4689263.8212646,1.575537,1.265393-.6587532c.8535208-.4441284,1.6574079-.5557757,2.410431-.3337115.753042.2220642,1.322466.7034083,1.708272,1.4440325.2444012.4689452.3572979.9391208.3424002,1.4130256-.0161281.4726554-.1575518.9093255-.4230218,1.3100481-.2642585.4007037-.6525443.7331658-1.1636648.9999041l-1.6040641.834894.8051365,1.54701,1.5755181-.8200342c.8448321-.4391499,1.4911863-.9949256,1.9402743-1.6660777.4478386-.6724015.6909905-1.3968975.7269758-2.1759868.0359664-.7790703-.1439035-1.5469911-.5396476-2.3074724-.5222891-1.0036143-1.2380964-1.6660777-2.1486902-1.9886397-.9093444-.3213126-1.8447361-.2890564-2.8049447.0980179l-.0731822-.1414426c.5532959-.5855521.8944468-1.2691032,1.024702-2.0481925.1302741-.7803197-.0173585-1.5804777-.4453588-2.4017423-.4007037-.7691701-.926703-1.3348649-1.5804966-1.6971035-.6537747-.3635068-1.3757909-.5297284-2.1647993-.5012014-.7890084.0297764-1.5829764.2518406-2.3794242.667423-.816305.4242901-1.4564314.9552489-1.920417,1.5929145-.4627363.6376466-.7207669,1.3398056-.771631,2.1052465-.0521134.7666714.1314856,1.5494898.5483363,2.3521276l5.5801129,10.7198266,1.6598877-.8646893ZM169.4217465,407.016043c.0955192-.3386711.0657428-.6550241-.0880798-.9502704-.1687203-.3237923-.4156013-.5371678-.7393937-.638896-.3250228-.1029775-.6488151-.069472-.9726075.0992484-.2952464.1538227-.5011825.3957441-.6165589.7282062-.1166258.3312506-.0905596.6587532.0781607.9825456.1538227.2952464.4031835.4974723.7492939.6066398.34488.1091675.6661926.0868494.9614579-.0669922.3237923-.1687203.5322082-.4217914.6277274-.7604814M165.3700167,409.1250377c.0955381-.33869.0657617-.6550241-.0880798-.9502894-.1687203-.3237923-.414352-.5371678-.7393748-.638896-.3237923-.1029586-.6488151-.069472-.971377.0992484-.2952464.1538227-.5011825.3957441-.6178083.7282252-.1166069.3312317-.0905596.6587343.0781607.9825266.1538416.2952653.4031835.4974723.7493128.6066398.3461105.1091675.6661926.0868494.961439-.0669922.3237923-.1687203.5334576-.4217914.6277274-.7604624M170.0048188,421.0345575c-.5805925-.069472-1.0222411-.3932643-1.3224471-.9701277-.2195844-.4217914-.2803866-.8150557-.1811382-1.1797929.0992484-.3647183.303954-.7058881.6116183-1.024702.3076453-.3175834.6636939-.6178083,1.0656469-.8981759.1662405-.1166258.3833452-.2667383.6537747-.4528171.2704485-.1848484.5458565-.3820958.8274735-.591761.281617-.2084159.5222891-.4093924.724496-.6004308.2009765-.1910574.3151036-.3473598.3411509-.4676959l.7914882,1.518464c.2344821.4503184.3411698.9403513.3213126,1.4688493-.0198383.5284791-.1885586,1.0395996-.506161,1.5333427-.3188138.4937431-.8063669.9105749-1.4626214,1.2529751-.661233.3436496-1.2827704.4813442-1.8645934.4118722M173.8431542,421.1325754c.3374407-.414352.569424-.8237444.6922398-1.2269279.1240652-.4044328.1811382-.753042.1712001-1.0458086l.0843696-.0446741.7617118,1.4638897,1.6598877-.8646893-3.7056004-7.1184153c-.4466082-.8572499-.9440804-1.4688493-1.4911674-1.8335676-.5471059-.3647373-1.0991524-.563234-1.6549281-.5954902-.5570251-.0322562-1.0830244.028546-1.5780168.1811382-.4949925.1538227-.9155534.3212936-1.2629132.5011825-.5446072.2840968-1.0582075.6451049-1.5407821,1.0842737-.4838239.4391499-.8659387.9663985-1.1450569,1.5792472-.2791372.6140791-.3895352,1.3212166-.3287519,2.1251038l1.8683036-.2580306c-.022337-.4888025.1017282-1.0247209.3709273-1.6053134.2692181-.581823.8001769-1.0780648,1.5929145-1.4911674.7641916-.3982239,1.4353437-.5024318,2.0134375-.3151036.5768823.1885586,1.0470579.6289579,1.4080661,1.3236775l.0297764.0558426c.1389439.2679498.1414237.5049116.0074394.7108477-.1339843.2071665-.3945137.4391499-.781569.6971994-.3870554.2580306-.8870074.6004308-1.4986068,1.0272007-.4676959.3262721-.920513.6736319-1.357202,1.0420794-.4379194.3672171-.8026378.7679207-1.0966537,1.1996312-.2927855.4329599-.4615058.9068647-.5036812,1.420465s.097999,1.0805446.4205609,1.6995833c.3659677.7034083.8411029,1.2170087,1.4279044,1.540801.5855521.3237923,1.2244481.4701756,1.9179183.4403992.6934892-.0310068,1.3832492-.224544,2.0680497-.5805925.6277274-.3275026,1.1115514-.6984298,1.4502225-1.1127818M158.2590408,426.550158c-.6364067-.0831013-1.2231987-.3498396-1.7591361-.8014074-.5359279-.4503184-.9986642-1.0519986-1.3894392-1.8025608-.3808559-.730686-.6116088-1.4576618-.6909999-2.1784477-.0806405-.7207669.0198478-1.3807505.3002154-1.9799509.2816075-.5992004.7741202-1.0817939,1.4775286-1.448992.6748718-.351089,1.3298959-.4776339,1.9650627-.379616.6351857.0992294,1.2256974.3845756,1.7703046.8584804.5446072.4738859,1.018512,1.0991335,1.4241752,1.8782228.4156013.7964478.6513138,1.5432808.7108666,2.2404802.0583034.695969-.063282,1.3162571-.3634879,1.8608642-.3014742.5433768-.7840488.9887356-1.4502414,1.3360954-.6947196.3610081-1.3596818.499952-1.9948486.4168318M165.538737,430.4033911c.563234-.6413758.9031544-1.363392,1.018512-2.1660487.1153765-.8014074-.0682226-1.6673271-.5520465-2.5952794l-5.7848186-11.1143214-1.6040641.8349129.8944657,1.7169607-.1699697.0880798c-.2195655-.1240652-.5160801-.2754081-.891967-.4528171-.3746564-.1761597-.8311838-.2729283-1.3658718-.2890564-.5359279-.0161281-1.156216.1588012-1.8596243.5247689-.909335.4739048-1.5941354,1.1177603-2.0519121,1.9315666-.4590071.8138252-.6686724,1.7330888-.6289673,2.7590402.0396956,1.0247209.3473598,2.0916172.9229833,3.198209.5855521,1.1251997,1.2840009,1.9774901,2.0953368,2.5568332.811336.5781127,1.6698163.8944468,2.5766621.9465602.9056342.0533439,1.7951214-.1476327,2.6672501-.6016802.7034083-.3659677,1.2045908-.7679207,1.5035853-1.2070895.2989755-.4391499.4850544-.8609602.5582555-1.2653741.0719518-.4044328.1178562-.7356645.1376946-.9961939l.1401933-.0731822,1.1425582,2.1945757c.4689452.8994064.5297284,1.708272.1811382,2.4265591-.3473598.7170567-.9577287,1.3026088-1.8298574,1.7566563-.6512949.3399204-1.2269279.5185599-1.7268799.5371678s-.9316815-.0396956-1.29392-.1761597c-.3622575-.1352148-.6699217-.2629902-.9229928-.3820958l-.8386231,1.6177124c.4193116.2568002.9068647.4528171,1.461391.5843217.5545453.1314856,1.173584.1488631,1.8559047.0520945.6835511-.0955192,1.4254246-.3523194,2.2268319-.7704005.8634399-.449088,1.575537-.9936951,2.1387521-1.6363203M144.4179355,418.1775183l7.4992806,14.4055698,1.6598972-.8646893-7.4992806-14.4055698-1.6598972.8646893ZM139.5213831,420.7268932l7.4980407,14.4043394,1.6611371-.8634399-7.4992901-14.4055698-1.6598877.8646704ZM136.5762546,438.4361293c-.5818324-.069472-1.0222317-.3932643-1.3224565-.9701277-.2208243-.4218103-.2803676-.8150557-.1811193-1.1797929.0992484-.3634879.3026952-.7058881.6115994-1.0234715.3076643-.3188328.6624729-.6178083,1.0644165-.8994253.1662405-.1153765.3845756-.2667193.6550241-.4515678.2692086-.1860789.5458565-.3833452.8262242-.591761.2816075-.2096463.5235195-.4093735.724496-.6004308.2022164-.1910574.3163435-.3473598.3424002-.4689452l.7902483,1.5197134c.2344631.4503373.3424002.9391208.3225525,1.4675999-.0198572.5297284-.1885681,1.040849-.5074009,1.5333617-.3175834.4937431-.8051365.9118242-1.4614005,1.2529751-.6612235.34488-1.2827515.4813442-1.8645839.4118722M140.4133595,438.5353777c.3386711-.414352.569424-.8237444.6934797-1.2281772.1228158-.4044328.1798794-.7530231.1699602-1.0458086l.0843602-.0434247.7617118,1.4626404,1.6598877-.8634399-3.7043605-7.1184153c-.4478481-.8584804-.9440804-1.4700797-1.4924073-1.834817-.5470964-.3647373-1.0991524-.5632151-1.6549281-.5954713-.5557852-.0322562-1.0817845.028527-1.5767769.1823686-.4949925.1538227-.9167838.3200632-1.2641436.5011825-.5433768.2828474-1.0569771.6438555-1.540801,1.0830244-.4838239.4403992-.8646798.9664175-1.1450475,1.5792472-.2791277.6140981-.3883047,1.322466-.3287519,2.1251227l1.8695435-.2568002c-.0223276-.4900329.1004883-1.0247209.3709367-1.6065628.2691991-.5805736.8001675-1.0780458,1.5928956-1.489918.764201-.3982239,1.4353532-.5036812,2.0122166-.3151036.5781127.1873282,1.0470485.6289579,1.4092965,1.3224471l.028527.057073c.1389534.2667193.1426731.5036623.0086887.7108477-.1339843.2059361-.3945042.4391688-.7815596.6971994-.3870648.2580306-.8870169.6004308-1.4998561,1.0259513-.4677053.3275215-.9192731.6748813-1.3571925,1.0420984-.4379289.3671981-.8026567.7679018-1.0954328,1.2008617-.2940159.4329599-.4614964.9056342-.5036717,1.4192346-.0421753.5148308.0967686,1.0805256.4193116,1.6995833.3659772.7034083.8423523,1.2170087,1.4279044,1.540801.5855521.3237734,1.225688.4701756,1.9191772.4403992.6934797-.0297764,1.3819999-.2233136,2.0668003-.5793432.6289673-.3275215,1.1115514-.6984488,1.4502319-1.1128008M121.3022853,448.5195208l-2.7962654-13.1339679.1128967-.0583034,9.1542088,9.8241116,1.8013209-.9378715-3.560457-16.456242-1.7727844.9229928,3.0977207,13.3002084-.1414237.0732011-9.174066-10.1367543-1.9687919,1.0259513,3.0406477,13.3287544-.1414237.0732011-9.116993-10.1652814-1.7727844.9229928,11.4381137,12.3548975,1.800081-.9378904Z"/>
    <path class="st9" d="M268.3290548,190.6258731c.6562545-.2679687,1.2045908-.6376655,1.6462394-1.1078412.4403992-.4701756.7505433-1.0135713.9304321-1.6301113l-1.8162091-.4763846c-.1513429.4255016-.3696968.7827805-.6550241,1.0705875-.2865766.2878449-.6277274.5049306-1.0247209.6525443-.3957441.1464022-.8398536.224544-1.3323662.2332516-.7555218.0136294-1.4217144-.1401933-1.9985777-.4602565-.575614-.3213126-1.0296805-.7964478-1.3609122-1.4279044s-.5049116-1.4068167-.5197904-2.3273297l-.0198572-1.0780458c-.0111685-.6711711.1228158-1.3026277.4031835-1.8943698s.6885296-1.075585,1.2244481-1.4527023c.534688-.3771551,1.1748333-.5719038,1.920417-.585571.6773611-.0111685,1.2678728.1339843,1.7727844.4379194.5049116.3027236.8981759.7220162,1.1797929,1.2554928.2815981.534688.4280003,1.1462684.4403992,1.8323183l-7.4844019.1314856.0272966,1.6164819,9.3886908-.1637418-.0148977-.7927376c-.0198383-1.1363871-.1873282-2.0903678-.5011825-2.8620177-.3151225-.7716499-.730705-1.3894392-1.2467851-1.8534059-.5148497-.4640046-1.0842737-.7964478-1.7057922-.9974432-.6227679-.2009576-1.2504953-.2952653-1.8844317-.2840968-1.1004018.0186268-2.0556318.3039351-2.8682266.8547512-.8125759.5508161-1.4390729,1.3075873-1.8794721,2.2690262-.4416486.9626883-.6500645,2.0668193-.6289768,3.3148159.022337,1.2467851.2692181,2.3359995.7431039,3.2664316.4739048.9304321,1.1388669,1.6474888,1.9973473,2.1536687.857231.5061421,1.8720328.7480635,3.0456167.7281873.8249748-.0148787,1.5655989-.1562835,2.2218724-.4230029M249.2923931,191.0885905l-.2108957-12.0831997c-.0136483-.7766095.246881-1.414275.7803197-1.9129966.5334576-.4986838,1.2095693-.7554839,2.0283541-.7691512.8721287-.0148787,1.5655989.2369619,2.0791993.7567711s.7778399,1.1599357.7914882,1.9216285c.0086887.4863037-.0893292.9490589-.2927666,1.3882277-.2047057.4403803-.4987216.800158-.8820668,1.0780458-.3833262.2791372-.8423333.4242901-1.3757909.4329599l-1.0147828.0173775.0310068,1.7765135,1.426655-.0248358c.9614579-.0173396,1.730609.2419214,2.3049926.7766095.5756329.534688.8708982,1.2194885.8845276,2.0544014.0099381.5284791-.097999,1.0011534-.3237734,1.4179852-.2257933.4155824-.5458565.7443533-.9626883.983776-.4156013.2406721-.9118242.3647373-1.4874572.3746564l-1.8087697.0322562.0310258,1.7442574,1.7764946-.0310447c.9515387-.0173396,1.7777629-.2257555,2.4786725-.626497.7021779-.4007037,1.2418255-.9415628,1.6214415-1.622653s.5619846-1.448992.547087-2.3049926c-.0198383-1.1313897-.3647183-2.0444822-1.0358705-2.7379525-.6699217-.6947196-1.5209438-1.0830054-2.5543534-1.1648953l-.0024798-.1587822c.7567522-.2778878,1.3671211-.7369328,1.8323372-1.3758099.4639667-.6401264.6885107-1.4229448.6723826-2.3484173-.0148787-.8659197-.2344631-1.6077743-.6575039-2.2243521s-.9949445-1.0880029-1.714481-1.414275c-.7182871-.3250228-1.5283832-.4800948-2.4265591-.4652161-.9192636.0161281-1.7293597.205955-2.4290578.5706923-.6996792.3634879-1.243056.8770883-1.6301113,1.5383023-.3883047.6624634-.5743836,1.4465312-.5582555,2.3496667l.2108957,12.0831997,1.8707834-.0322562ZM236.3469839,189.4225127c-.490014-.3213126-.7393748-.8076163-.7505433-1.4576997-.0086887-.4751352.1128967-.8547512.3647373-1.1363493.2505912-.2816359.5855521-.4962229,1.0036143-.6438745.4180811-.1476137.8683995-.2580495,1.3547033-.3299824.1997461-.0297953.4627363-.0670111.7865286-.1116473.3250417-.0459234.6587532-.0992673,1.0048637-.161281.34488-.0608022.6500645-.132735.9155534-.2133755.2654889-.0818898.4379194-.1712001.5148308-.2667193l.0297764,1.7120012c.0099381.5073914-.1128777.9936951-.3671981,1.4576618-.25309.4639667-.632706.8460814-1.1376176,1.1463063-.5049116.2989755-1.1276795.455259-1.8670732.4689263-.7455837.0124179-1.363392-.1414426-1.8521755-.4639667M239.7374807,191.2238242c.4875531-.2195844.8770883-.4838429,1.1673751-.7902388.2915362-.3064338.4974723-.5930293.6202881-.8597487l.0942888-.0012115.028546,1.6487003,1.8720138-.0322562-.1401744-8.0240306c-.0173775-.9663985-.1885776-1.7355876-.5160801-2.306242-.3275215-.5706544-.7331848-.9949445-1.2157593-1.271583-.4838239-.2766385-.9812962-.4577578-1.4924168-.540897-.5123699-.0843507-.9639377-.1228158-1.3547222-.1153575-.6128298.0111685-1.2343672.104189-1.863344.2828474-.6277274.1774091-1.2045908.4775961-1.7281103.9018861-.5247689.4242901-.9378715,1.0098232-1.243056,1.7554259l1.7876631.6029106c.1984967-.4478386.547087-.8721287,1.0482884-1.271583.5011825-.3994543,1.1971515-.6078702,2.0903678-.6239983.8622095-.0149166,1.5097753.1910384,1.9427352.61654.4329788.4267509.6562734,1.0309109.6699217,1.81248l.0012304.063263c.0049785.3014742-.097999.5148497-.310144.6401643-.2121261.1252767-.5495668.2170857-1.0110537.2753891-.4615058.0583034-1.0607062.1414426-1.7988506.2493797-.5644455.0843507-1.1251997.1934993-1.679726.3274836-.5557757.1339843-1.0619367.3287709-1.5172336.585571s-.816305.6054093-1.0842548,1.0457897c-.2667383.4404182-.3945137,1.0098232-.3820958,1.7082909.0136294.7927376.2108957,1.4638708.5905117,2.0159363.379616.5508161.8857581.9676479,1.5209438,1.2504953.6339364.2815981,1.3360954.4168318,2.1077453.4032024.7083679-.0124179,1.3075494-.1290248,1.7951025-.3486092M227.6927272,191.4657077l-.1339843-7.7064282c-.0099192-.5496046.1153765-1.0420794.3746564-1.477538s.6178083-.7803197,1.0768154-1.034659c.4577767-.2543015.9825456-.3857871,1.575537-.3957441.2481114-.0049596.4850733.0087077.7096173.0384651.2257744.0310447.3696779.0533439.4341903.0682605l-.0334866-1.9030775c-.1066877-.0086698-.2617598-.0136294-.4689452-.0161281-.2059361-.0012115-.3771362-.0012115-.5148308.0012494-.7294556.0124179-1.3819999.212164-1.9564024.597951-.575614.3845756-.9676479.8808363-1.179774,1.4874572l-.126545.0024987-.0322562-1.8397766-1.8075204.0310068.212145,12.1787189,1.8707834-.0322562ZM218.2519418,188.6483641c.0123989.7083869.1885776,1.2914592.5272487,1.7517157.3374407.4590071.7617118.7976971,1.2703526,1.0160322s1.0272007.3237734,1.5556798.3138543c.3498396-.0062089.6364162-.0359664.8634399-.0905596.2257933-.0533439.401953-.1054384.5284791-.155072l-.4093924-1.6747854c-.0793911.0173775-.1848295.0397145-.316334.0657617s-.3014553.040926-.5073914.0434247c-.2741776.0049596-.5359374-.0335056-.7828184-.1166069-.2468621-.0831392-.4515678-.2543393-.6115994-.5123888-.161281-.259261-.2456317-.6525443-.2543204-1.1810234l-.2034563-11.6080645-1.8707834.0322562.2108957,12.1154559ZM216.2521337,179.4829868l.028527,1.5854751,6.3108179-.1091865-.0272966-1.5866866-6.3120483.110398ZM212.5403243,180.1827039c-.6996792-.5173484-1.651199-.7642294-2.8570392-.7431039-.8560006.0148787-1.6177124.1786206-2.2863847.4912633-.6686724.3138543-1.1934223.7381443-1.5730572,1.2728324-.3783666.5358995-.5619657,1.1462684-.5507972,1.8335676.0148787.841084.287807,1.5358036.8175355,2.0841589.5309589.5483174,1.3559526.9453109,2.4761927,1.1896932l2.0382544.4404182c.6153285.1315235,1.0731052.3399394,1.3745605.6227868s.4552969.6351668.4627363,1.0582075c.0086887.5235195-.2406721.9750683-.7493128,1.3571831-.5098712.3820769-1.1996312.5805736-2.0717599.5954902-.7666714.0136294-1.3894392-.1401933-1.8683036-.459045-.4788644-.3200632-.8088657-.8051176-.9887356-1.4576618l-1.7678248.4751352c.2344631,1.0321603.7629612,1.8100191,1.5867055,2.334788.8237255.524731,1.8558857.7765716,3.0989417.7554839.9453298-.0161281,1.7727844-.1897891,2.4811523-.5198093.7071375-.328733,1.2567043-.771612,1.6462583-1.3286371.3895352-.5570251.5780938-1.1847714.5656949-1.8819519-.0148787-.851041-.2940159-1.5432998-.8373927-2.0754891-.5433578-.5321893-1.3621426-.920513-2.4550861-1.1661446l-1.8149787-.4131216c-.7220162-.1662405-1.2554549-.3820769-1.5978551-.6463353-.3436307-.2630091-.5185599-.6277085-.5272487-1.0929246-.0086698-.5235195.2307529-.9589781.7195364-1.3088366.4875531-.3498207,1.104112-.5309399,1.8496957-.5446072.5446261-.0086698.9924647.0707213,1.3447841.2394227.3523383.1674899.6314566.3833641.8398725.6463732.2084159.2642206.3672171.534688.4788644.8125759l1.6723056-.5049306c-.3064338-.8609602-.8088657-1.5507202-1.5073144-2.0667814M194.4130261,182.9094879c.2605293-.5012203.6227679-.8857959,1.0855041-1.1525152.4639856-.2667193.9937141-.4056633,1.5916651-.4168318.8659197-.0148787,1.5532.2419214,2.059361.7691512.5061421.5284791.7679207,1.2703715.7840488,2.2268509l.132735,7.6121584,1.8707834-.0334677-.1339843-7.7374729c-.0186079-1.0371577-.2059361-1.8906596-.5607353-2.5642915-.3560485-.6736319-.8448321-1.1723536-1.4700797-1.4973763-.6240172-.3250228-1.3485133-.4800948-2.1734881-.4652161-.9192636.0161281-1.6660967.218335-2.2417296.6054093-.5743836.3882858-.9986547.8944657-1.2740628,1.5172147l-.1588012.0037102-.0322562-1.9030396-1.8075204.0310447.212145,12.1787189,1.8707834-.0322562-.1277754-7.3268501c-.0123989-.708349.1116473-1.312509.3734071-1.8149408M186.4026249,192.054989c.6550241-.2679687,1.2046098-.6364162,1.645009-1.1065918.4416486-.4701756.7517926-1.0135335.9316815-1.6301113l-1.8162091-.4763846c-.1513429.4255394-.3696968.7828184-.6562734,1.0706254-.2853272.287807-.6264781.5049306-1.0234715.6525443-.3957441.1464022-.8398725.224544-1.3323662.2332138-.7555218.0124179-1.4217144-.1401554-1.9985777-.461468-.5768634-.3201011-1.0296805-.7964478-1.3609122-1.4279044-.3312317-.6302072-.5049116-1.4068167-.5210397-2.3260803l-.0186079-1.0780837c-.0111685-.6711332.1228158-1.3025898.4031835-1.8943319.2803676-.59178.6885107-1.0768343,1.2244481-1.4527401.534688-.3771173,1.1748333-.5719038,1.920417-.5855332.6761117-.0111685,1.2678728.1339843,1.7727844.4366701.5049116.3039351.8981759.7220162,1.1797929,1.2567043.2815981.534688.4279814,1.1450569.4403992,1.8323183l-7.4844019.1302741.0272966,1.6176934,9.3874415-.1637418-.0136483-.7927376c-.0198572-1.1363493-.1873282-2.0903678-.5012014-2.8619798-.3151036-.7716499-.730686-1.3894771-1.2467662-1.8546932-.5148497-.4639667-1.0842737-.7964478-1.7057922-.9974054-.6227679-.1997461-1.2505142-.2952653-1.8844317-.2840968-1.1004018.0198383-2.0556508.3051845-2.8682266.8560006s-1.4390729,1.3063379-1.8807026,2.2690262c-.4404182.961439-.6488341,2.0667814-.6277464,3.3135665.022337,1.2480345.2692181,2.3372488.7431039,3.2664316.4739048.9304321,1.1388669,1.6487381,1.9960979,2.1548802.8584804.5061421,1.8732632.7480635,3.0468472.7282252.8249937-.0148787,1.5643685-.1563214,2.2218724-.4242901M175.1878247,177.7970708c.2568002-.25309.3820958-.5545642.3758869-.9031355-.00619-.3486092-.1414237-.6451238-.408143-.8895061-.2654889-.2431708-.5805925-.3622385-.9453298-.3560296-.3647183.0061711-.6761117.1364452-.9329119.3895352-.2580306.2530521-.3833262.553277-.3771362.9031355.0062089.3486092.1426731.645086.408162.8882568.2654889.2443823.5805925.3634879.9453109.3560296.3647373-.0062089.6761117-.1352337.9341613-.3882858M175.4222878,192.3775509l-.2133755-12.1775074-1.8707834.0322562.2121261,12.1787568,1.8720328-.0335056ZM168.6102875,180.9493563c-.6984488-.5160612-1.6499686-.7641916-2.8558087-.7431039-.8560006.0148787-1.6189428.1786584-2.2876152.4912633-.6686724.3138921-1.1921919.7381443-1.5718079,1.2728324-.379616.5359374-.563234,1.1463063-.5508161,1.8335676.0148787.8411218.287807,1.5358415.8175355,2.0841967.5309589.5483174,1.3559526.9453109,2.4761927,1.1896932l2.0370239.4404182c.6165589.1314856,1.0743356.3399015,1.3757909.6227489.3002249.2828474.4552969.6351668.4627363,1.0582075.0086887.5235195-.2406721.9763555-.7505433,1.3572209-.5086408.3820769-1.1984008.5805736-2.0705295.5954523-.7666714.0136672-1.3894392-.1401933-1.8683036-.4590071-.4788644-.3200632-.8088467-.8051176-.9887356-1.4576618l-1.7690552.4751352c.2356936,1.0321603.7641916,1.8099812,1.587936,2.3347501.822495.5260182,1.8558857.7766095,3.0977113.7555218.9465602-.0161281,1.7740338-.1898269,2.4811523-.5198093.7083679-.328733,1.2567043-.7716499,1.6462394-1.3286371.3895541-.5570251.5781127-1.1835221.5669442-1.8819898-.0148787-.8510031-.2940159-1.5420125-.8373927-2.0754512-.5433578-.5322272-1.3621426-.920513-2.4550861-1.1661446l-1.8162091-.4131216c-.7220162-.1662405-1.2542245-.3821147-1.5966247-.645086-.3436307-.2642585-.5185599-.6289957-.5272487-1.0942118-.0086698-.5235195.2307529-.9589402.718306-1.3087988.4887835-.3498585,1.1053425-.5309778,1.8509262-.5433578.5446261-.009957.9924647.069472,1.3447841.2381734.351089.1674899.6314566.3833262.8398725.6475847.2084159.2630091.3672171.5334387.4776339.8125759l1.6722867-.5061421c-.3051845-.8609602-.8076163-1.5507202-1.5072955-2.0668193M155.7628867,192.589677c.656264-.2679687,1.2046003-.6364162,1.6462394-1.1065918.4404087-.4701756.7505527-1.0135335.9304227-1.6301113l-1.8161902-.4763846c-.1513523.4255394-.3696968.7828184-.6550241,1.0706254-.2865766.287807-.6277369.5049306-1.0247209.6525443-.3957441.1464022-.839863.224544-1.3323757.2332138-.7555123.0124179-1.4216954-.1401554-1.9985683-.461468-.5756235-.3201011-1.0296805-.7952363-1.3609122-1.4266929-.3312317-.6314187-.5049116-1.4067788-.5197998-2.3272918l-.0198478-1.0780837c-.0111685-.6711332.1228158-1.3025898.4031835-1.8943319.2803771-.59178.6885201-1.0768343,1.2244481-1.4527401.534688-.3771173,1.1748239-.5719038,1.920417-.5855332.6773516-.0111685,1.2678633.1339843,1.7727844.4379194.5049116.3026857.8981759.7207669,1.1797835,1.2554549s.4280003,1.1450569.4404087,1.8323183l-7.4844019.1315235.0285365,1.6164441,9.387432-.1637418-.0148787-.7927376c-.0198572-1.1363493-.1860978-2.0903678-.5011919-2.8619798-.3151036-.7716499-.730705-1.3894771-1.2467851-1.8546932-.5148308-.4639667-1.0842548-.7964478-1.7057922-.996156-.6227679-.2009954-1.2504953-.2965147-1.8844317-.2853461-1.1003923.0198383-2.0556318.3051845-2.8682077.8560006-.8125853.5508161-1.4390729,1.3063379-1.8794721,2.2690262-.4416486.961439-.6500645,2.0667814-.6289768,3.3135665.0223276,1.2480345.2692086,2.3372488.7431039,3.2664316.4739048.9304321,1.138848,1.6487381,1.9973284,2.1548802.8572405.5061421,1.8720328.7480635,3.0456167.7282252.8249843-.0148787,1.5656084-.1563214,2.2218724-.4242901M141.7691891,192.9655828l-.1339843-7.7064661c-.0099286-.5495668.115367-1.0420794.374647-1.4787495.2592894-.4354586.6178083-.7791082,1.0768249-1.0334096.4577767-.2543015.9825361-.3858249,1.575537-.3957441.2481114-.0049596.4850638.0086698.7096078.0384651.2257839.0310068.3696874.0533439.4341998.0682226l-.0334961-1.9030396c-.1066877-.0086698-.2617598-.0136672-.4689357-.0161281-.2059361-.0012494-.3771362-.0012494-.5148402.0012494-.7294556.01238-1.3819999.2121261-1.9563929.597951-.5756235.3845756-.9676479.8807985-1.1797835,1.4874572l-.126545.0024609-.0322467-1.8397766-1.8075204.0310447.2121356,12.1787189,1.8707929-.0322562ZM134.0044196,192.9705424c.656264-.2679687,1.2046003-.6376655,1.6462394-1.1078412.4404087-.4701756.7517926-1.0135335.9304321-1.6301113l-1.8161996-.4763846c-.1513523.4255394-.3696874.7828184-.6550241,1.0706254-.2865766.287807-.6277274.5049306-1.0234715.6525443-.396984.1464022-.8411124.224544-1.3323852.2332138-.7567522.0136672-1.4229353-.1401554-1.9998082-.4602565-.5756235-.3213126-1.0296805-.7964478-1.3609122-1.4279044-.3312317-.6314187-.5036717-1.4067788-.5197998-2.3272918l-.0186079-1.0780837c-.0124084-.6711332.1215759-1.3025898.4019436-1.8943319.2803771-.59178.6885201-1.075585,1.2244481-1.4527401.534688-.3771173,1.1760732-.5719038,1.920417-.5855332.6773516-.0111685,1.2678633.1339843,1.7727844.4379194.5049116.3026857.8981759.7220162,1.1797835,1.2554549.281617.534688.4280003,1.1463063.4404087,1.8323183l-7.4844019.1315235.0285365,1.6164441,9.3874415-.1637418-.0136483-.7927376c-.0198478-1.1363493-.1873282-2.0903678-.5024318-2.8619798-.3151036-.7716499-.730705-1.3894771-1.2455357-1.8534438-.5160801-.4652161-1.0855041-.7976971-1.7070321-.9974054-.6227773-.2009954-1.2505048-.2952653-1.8844412-.2840968-1.1003923.018589-2.0556318.3039351-2.8682077.8547512s-1.4390729,1.3075494-1.8794721,2.2690262c-.4404087.9626883-.6500645,2.0667814-.6289768,3.3148159.0223276,1.2467851.2704485,2.3359995.7431039,3.2664316.4739048.9304321,1.1400879,1.6474888,1.9973284,2.1536308s1.8720328.7480635,3.0456167.7282252c.8249843-.0148787,1.5656084-.1563214,2.2218724-.4230407M115.3846086,184.289008c.2679687-.5012203.6426157-.8857959,1.12148-1.1537646.4788644-.2667193,1.0247209-.4056633,1.6388001-.4168318.8820573-.0148787,1.5780168.2382112,2.0866481.7604814.5086408.5222701.7716404,1.2678728.7890084,2.2342713l.1327445,7.6121962,1.8707929-.0322562-.1352242-7.7387223c-.017368-1.047039-.2059361-1.9067498-.5644644-2.5803818-.3572884-.6724204-.8510315-1.1686433-1.4812482-1.4887065-.6289768-.3188138-1.3584324-.471425-2.1883763-.4577578-.9577287.0173396-1.7194405.2170857-2.2863847.5991625-.5669442.3833641-.9874957.8920049-1.2616638,1.5259223l-.1587917.0024987-.1042079-5.9622087-1.8707929.0322562.2828569,16.2378881,1.8720233-.0322562-.1277754-7.3268501c-.0124084-.708349.1153765-1.312509.3845756-1.8149408M102.9168239,179.1455462l.253071,14.4936686,1.9663121-.0347171-.253071-14.4936686,5.1062082-.0893103-.0310163-1.7442574-12.177498.2133755.0297764,1.7442574,5.1062176-.0893481Z"/>
    <path class="st9" d="M481.1200849,145.7729571c.6935081.1451529,1.3547222.1451529,1.9836801.0024987.6289957-.1439414,1.189731-.4205799,1.683493-.8312027l-1.2393647-1.4105269c-.3634879.2691802-.7443154.442879-1.1425582.5210208-.398205.079429-.8026567.0682605-1.2132795-.0310068-.4106228-.1004788-.822495-.2840968-1.2356166-.5520655-.6339175-.4118722-1.1003829-.9118053-1.3993584-1.4998372s-.408162-1.2356166-.3300202-1.9440034c.079429-.708349.3684853-1.448992.8696678-2.2206041l.5880319-.9043849c.3647373-.563234.8299533-1.0110726,1.3931495-1.344803.563234-.3336926,1.1723536-.5073914,1.8273966-.5210208.6537558-.0124179,1.29392.1835801,1.9191677.5904927.5669442.3684475.9763177.8187848,1.2244481,1.3522235.2493419.534688.3411509,1.1016322.2766385,1.702082-.0657617.6004498-.2853461,1.1884817-.6600026,1.765345l-6.2785239-4.0777581-.8808363,1.3571831,7.873956,5.1136286.4329599-.6649243c.6190387-.9527692,1.0135335-1.8385272,1.1834842-2.6536018.1712001-.8162861.1724495-1.5606394.0037481-2.2342713-.1674899-.6723826-.452836-1.2666234-.8572499-1.7802238-.4032024-.5148497-.8708793-.9440994-1.4031065-1.2902098-.9217245-.5992004-1.8744936-.8969266-2.8557709-.8944657-.9813151.0024987-1.9241651.2791372-2.8273006.8299533s-1.6946237,1.3497626-2.3744646,2.3968016c-.6785915,1.0457897-1.0830054,2.0866576-1.2095693,3.1225281-.1277754,1.0371199.022337,2.0035184.4503373,2.9029437s1.1338884,1.6673271,2.1176644,2.3074913c.6922588.449088,1.3844797.7455648,2.0791993.8907176M465.0794442,135.5121565l6.5824968-10.1355239c.4230407-.6512949.9949445-1.0346211,1.7157114-1.1500165.7208047-.1153575,1.4241942.050883,2.1114555.4974723.7319733.4751731,1.1649331,1.0718748,1.3013783,1.7901808.1352337.7182682-.0049596,1.3968597-.4192926,2.0345252-.2642585.408162-.6041978.736895-1.0197803.9875241-.4143331.2505912-.8597108.3845756-1.3335967.4019152-.4739237.0161281-.9353917-.1203171-1.3832682-.4118722l-.851041-.5520276-.9676479,1.4886687,1.1971893.7778588c.8075784.5235195,1.3000911,1.1686055,1.4775002,1.9327971.1774091.7654409.0397145,1.4973763-.4155824,2.1983049-.287807.442879-.6413758.7741107-1.0607062.9936951-.420542.2195844-.86963.3113934-1.3485133.2778878-.4800948-.0334677-.9601896-.2071665-1.4439946-.5210208l-1.5160032-.9850253-.9502704,1.4626214,1.489918.9676479c.7976971.5185978,1.5991045.8076163,2.4054714.8671691.8051554.0608022,1.5556798-.0856001,2.2516488-.4379194.6947196-.3523194,1.2753311-.8870074,1.7417586-1.6053134.6165779-.9490211.8411218-1.8992915.6736319-2.8495998-.167452-.9502704-.6562545-1.7479676-1.4663316-2.3943029l.0856001-.132735c.7827805.1935372,1.5457606.1538227,2.2888645-.1166069.7431039-.2704674,1.3658529-.7939869,1.8707834-1.569347.471425-.7269758.7046388-1.4651201.6984298-2.2131836-.0062089-.7468141-.2158363-1.4576618-.6302072-2.1300823-.4143331-.6723826-.9986547-1.2529562-1.7516778-1.743008-.7716499-.5011825-1.5495087-.7951984-2.3322892-.8857581-.7840678-.0893103-1.5209627.0322562-2.2131836.3647373-.6922588.3324811-1.2840009.8770883-1.7765135,1.6363203l-6.5812475,10.1342745,1.5693092,1.0197424ZM455.2776508,126.8926357c-.2257933-.540897-.161281-1.0842548.1935372-1.628862.2592989-.3994922.5706544-.6451238.9378904-.7381443.3659488-.0943077.7629422-.0843886,1.1921919.0272588.4292118.1116852.8646704.2729283,1.3063.4838429.183618.0880988.4217914.2034563.7158452.3473598.2940159.1439035.6016613.2865576.9229738.4280003.3200632.1426541.6128298.2543015.8795491.3349419.2655078.0818898.4577956.1029775.5756519.0670111l-.9329308,1.4365742c-.2766385.4255394-.6500456.7604814-1.1190097,1.0036143-.4701756.2431708-.9986547.3473977-1.5854373.3138921-.585571-.0347549-1.189731-.25309-1.8100191-.6562545-.6252477-.4057011-1.0507492-.879587-1.2765426-1.4192346M457.0814609,130.2806338c.5272297.0905596.9974054.0893481,1.4105269-.0012115.4118722-.091809.7431039-.2134133.9936951-.3659866l.0793911.0508451-.8981759,1.3832682,1.569347,1.0197424,4.371774-6.7301105c.5260182-.8113644.8138252-1.5445113.8622095-2.2008036.0471349-.6562545-.0520945-1.2343672-.2977262-1.7343003-.2456317-.499971-.5570251-.9279713-.9341802-1.2827894-.3783666-.3560296-.730686-.6401264-1.0582075-.8535019-.5148118-.3336926-1.0817561-.6029106-1.7032935-.8076163-.6202881-.2047057-1.2666234-.2766385-1.9377945-.218335-.6711332.0583034-1.3423043.3126428-2.0109767.7604814l1.1438076,1.4985878c.4156203-.259261.9416006-.4155824,1.5805155-.4676769.638877-.050883,1.3323852.1662405,2.081698.6525443.7232277.4689263,1.1450191,1.0023649,1.2653741,1.5966058.1203171.5954902-.0322562,1.2219872-.4577578,1.8782417l-.0347549.0533439c-.1637418.2518406-.3684475.3709462-.6140791.3560675-.246881-.0136672-.5768634-.1265639-.9924836-.3362292-.4155824-.2096274-.9589402-.4763846-1.6313228-.800158-.5148497-.2456317-1.0396186-.4676769-1.575556-.667423-.534688-.1997461-1.0631671-.3213126-1.5842258-.3634879-.5210208-.0409638-1.0160322.0458856-1.4837091.2617598-.4689263.2158742-.891967.6165779-1.2728324,1.202111-.4317105.6649621-.6438745,1.3323852-.6376655,2.0010575.0062089.6699217.1935372,1.2988796.5619846,1.8869115.3671981.5892812.8746274,1.0929624,1.5221742,1.5135044.5942408.3858249,1.1549761.6239983,1.6822437.7145579M446.9620651,123.7465213l4.1968637-6.4646406c.3002249-.461468.6786294-.7989086,1.1376365-1.0147828.4590071-.2170857.9490211-.3014742,1.4700797-.2555508.5222701.0458856,1.0309109.2295036,1.5283832.5520655.2084159.1351958.3969935.2790993.5669442.4292118.1699508.1513618.2766385.2518406.3213126.2989755l1.0371199-1.5953564c-.0831392-.0670111-.2096652-.1588201-.379616-.275427s-.3126428-.2121261-.4280003-.287807c-.6116183-.3969935-1.2641626-.5967017-1.9563835-.597951-.6922588-.0024987-1.2951694.1885776-1.8100191.5731532l-.1066877-.0682605,1.0024028-1.5432619-1.5160032-.9850253-6.6345913,10.214915,1.5705585,1.0197424ZM440.7108,116.1318642c-.3858249.5942408-.5669442,1.1760638-.5433578,1.7455067.0235864.5706544.1848295,1.087965.4850544,1.5544304.2989755.4652161.6711711.8423712,1.1140501,1.1301782.2927666.1897891.5483174.3262721.7654409.4069126.218335.081852.3932454.1376946.5259804.1662405l.5967395-1.6164819c-.0756809-.0297953-.1749103-.0707213-.2989755-.1228158s-.2716789-.1339843-.4441284-.246881c-.2307529-.1501124-.4255394-.3275215-.5843217-.534688s-.2320023-.4627173-.2208338-.7679018c.0124179-.303973.161281-.67738.4503373-1.1215084l6.3219864-9.7360317-1.569347-1.0197424-6.5986249,10.1627827ZM444.1769777,107.4155748l-.863421,1.3299243,5.2935364,3.4376317.863421-1.3299243-5.2935364-3.4376317ZM440.7083392,105.9181985c-.2903057-.8187848-.9416006-1.5569291-1.9526732-2.2131836-.718306-.4664654-1.4415716-.7567333-2.1710083-.8708793-.7294745-.114146-1.4006078-.0558047-2.0146869.1761597-.6140791.2320023-1.1078412.6351668-1.4824976,1.2120302-.4577578.7046766-.6202881,1.4329018-.4875531,2.1846755.132735.7505622.5954902,1.5420504,1.3869784,2.3707544l1.4440325,1.5047968c.4366701.4527982.6996792.8820478.7914882,1.2852502.0917711.401953.0222992.781569-.2084159,1.1351378-.2853461.4391309-.7456026.6748434-1.3807694.7070996-.6351668.0310068-1.3187558-.1897891-2.0494418-.6649243-.6438366-.4180811-1.0743356-.8932164-1.2926707-1.4254435-.218335-.5321893-.2195844-1.1202212-.0049596-1.7615969l-1.730628-.5954902c-.3833262.9874862-.379616,1.9290868.009957,2.8248019.3882858.8956772,1.1040931,1.6809565,2.1461725,2.3583365.7939869.5148118,1.575556.8336635,2.347168.9564794.7716499.1228158,1.4738278.0620137,2.1077453-.1811193.6351668-.2444202,1.1413467-.6587532,1.5221742-1.2430749.4627552-.7145579.6190766-1.4440325.4664654-2.1895972-.1525733-.7443533-.6140791-1.5246729-1.3832303-2.3397475l-1.2740817-1.3571831c-.5061421-.5421463-.8262052-1.0185309-.9639377-1.4291537-.1364452-.4106228-.0781418-.8100772.1749482-1.2008617.2853083-.4391688.7282252-.6662115,1.3286371-.6835511.5992004-.0161281,1.212068.1786206,1.8373157.5842838.4565084.2965147.7840299.6128676.9812773.9490589.1984967.3361913.3088947.6723826.3349419,1.0073624.0248358.3336926.0062089.6475468-.0583034.9403513l1.6685765.5160612c.2282921-.8845087.1972852-1.7367991-.0930205-2.5568332M424.1553096,98.043031c.4962608-.2692181,1.0110726-.3858249,1.5445113-.3486092.5334765.0372158,1.0507871.2195844,1.5519696.5446072.7269758.4726744,1.1525152,1.0681645,1.2777919,1.7889314.1240652.7207669-.0744315,1.4824976-.5954523,2.2851543l-4.1460186,6.3840001,1.569347,1.0197424,4.2154527-6.4906878c.5644834-.8696678.8870074-1.6822437.9688973-2.438977.0818898-.7567711-.0446741-1.4440325-.3808654-2.0630712-.3361913-.6178272-.8497916-1.1525152-1.540801-1.6016032-.771612-.5011825-1.5047968-.7505243-2.1983049-.7505243-.6934703,0-1.3286371.1823308-1.9042511.5446072l-.1327728-.0856001,1.0359084-1.5966436-1.5160032-.9849875-6.633342,10.2161265,1.5693092,1.0185309,3.9909465-6.1445774c.3858249-.5942408.8262052-1.0259892,1.3236775-1.2964187M412.3996314,101.1457208c.6934703.1451529,1.3546843.1451529,1.9836801.0024609.6289579-.1426541,1.1909425-.420542,1.6847045-.8311648l-1.2405762-1.4105269c-.3634879.2691802-.7443533.442879-1.1413467.5210208-.398205.0793911-.8026567.0682226-1.2132795-.0310068-.4118722-.1004788-.8237444-.2840968-1.2356166-.5520655-.6339175-.4118722-1.1003829-.9118053-1.3993584-1.4998372s-.4094113-1.2356166-.3299824-1.9440034c.0781418-.708349.3684475-1.448992.86963-2.2206041l.5867825-.9043849c.3659866-.563234.8299533-1.0110726,1.3943988-1.344803.563234-.3336926,1.1723536-.5073914,1.8261472-.5198093.6550051-.0136294,1.2951694.1823686,1.920417.5892812.5669442.3684475.9750683.8187848,1.2244481,1.3534728.2493419.5334387.3411509,1.1003829.2753891,1.7008326-.0657239.6004498-.2853083,1.1884817-.6587532,1.765345l-6.2785239-4.0765466-.8808363,1.3559716,7.873956,5.1136286.4317105-.6649243c.6190387-.9527692,1.0135713-1.8373157,1.1847714-2.6536018.1699508-.8162861.1712001-1.5606394.0037102-2.2342713-.1674899-.6724204-.4540475-1.2666234-.8572499-1.7802238-.4031645-.5148497-.8708793-.9440994-1.4030686-1.2902098-.9230117-.5992004-1.8745315-.8969266-2.8558087-.8944657-.9825645.0024987-1.9241651.2791372-2.8273006.8299533-.9043849.5508161-1.6946237,1.3497626-2.3744646,2.3968016-.679803,1.0457897-1.0830054,2.0866576-1.2107808,3.1237774-.1277754,1.0358705.022337,2.0035184.4503373,2.9016943.4280003.8994253,1.1350999,1.6673271,2.1188759,2.3074535.6910094.449088,1.3844797.7456026,2.0779878.8907555M401.9142868,83.5989961c.4962229-.2691802,1.0110726-.3858249,1.5445113-.3486092.5334387.0384651,1.0507492.2195844,1.5519696.544645.7269758.4726365,1.1524774,1.069376,1.2777919,1.7901429.1240273.7195175-.0744315,1.4812482-.5954902,2.283905l-4.1460186,6.3852494,1.569347,1.018493,4.2154527-6.4906878c.5644834-.8684185.8870453-1.6822058.9688973-2.438977.0818898-.7567333-.0446362-1.4440325-.3808275-2.0630712-.3362292-.6178272-.8498295-1.1512659-1.540801-1.6003538-.7716499-.5011825-1.5048346-.7517737-2.1983049-.7517737-.6935081,0-1.3286749.1823686-1.904289.5458565l-.132735-.0868494,1.0358705-1.5966058-1.5160032-.983776-6.6345913,10.2148772,1.5705585,1.0197803,3.9896972-6.1458267c.3858249-.5942408.8274925-1.0259513,1.3249647-1.2964187M399.928108,75.8143883c.3548181-.0657617.6277464-.2443823.8175355-.5371489.1898269-.2928044.2431708-.6153285.1587822-.965187-.0843507-.35107-.2790993-.626497-.5855332-.8249937-.3051845-.1984967-.6351668-.26547-.9899849-.1997082-.3548181.0669732-.6277464.2456317-.8175355.5383982-.1898269.2927666-.2431708.6140791-.1587822.9651492.0843507.3511079.2790993.6252855.5842838.8249937.3064338.1984967.6364162.2642585.9912343.1984967M391.9698014,88.034071l6.6333798-10.214915-1.569347-1.0197424-6.633342,10.214915,1.5693092,1.0197424ZM394.6147334,70.3881169l-8.8440647,13.6202905,1.5693092,1.018493,8.8453141-13.6202905-1.5705585-1.018493ZM377.9575148,76.4669325c-.218335-.6525443-.246881-1.3423043-.0831392-2.0680308.1625303-.7269758.4652161-1.4316146.9080951-2.1139542.4441284-.6823017.965187-1.249246,1.5656368-1.6970846.6004119-.4491258,1.2442864-.7083869,1.9327971-.7778588s1.3832682.1228158,2.0841589.5781127c.6997171.4540475,1.1587242,1.0110726,1.3745605,1.6673271.2158742.6575039.2406721,1.3522235.0756809,2.0829474-.1662405.730686-.4701756,1.4365742-.914304,2.1201253-.442879.6823017-.9626883,1.2455357-1.5606394,1.6896641-.5967017.4441284-1.2380774.6996792-1.9241273.7641916-.6848005.0657617-1.3782707-.1290248-2.0791993-.5830723-.6996792-.4552969-1.1599357-1.0098232-1.3795201-1.6623675M381.27358,80.454131c.9788164.0124179,1.9179183-.2505912,2.8185551-.7877401.9006746-.5371867,1.6934122-1.3336345,2.379462-2.3893433.6909715-1.063205,1.0991335-2.1189138,1.2269089-3.1647413.1277754-1.0445403-.0124179-2.0121882-.4217914-2.9016943s-1.0743356-1.6338215-1.9960979-2.2330219c-.9229738-.5992004-1.8732443-.9043849-2.8520607-.9155534-.9788164-.0124179-1.920417.25309-2.8235526.7951984-.9031355.540897-1.7008326,1.344803-2.391842,2.4079701-.6848005,1.0557088-1.0904637,2.1039972-1.2145289,3.1448651-.1240652,1.0408301.0173775,2.0060171.4267509,2.8954854.408162.8895061,1.0743356,1.6338594,1.9960979,2.2330598.9229738.5992004,1.8732821.904347,2.8520985.9155155M368.8231444,73.0020042l4.1981131-6.4633912c.2989755-.4615058.6773422-.8001959,1.1363493-1.0160322.4590071-.2158742.9490589-.3014364,1.4713291-.2555508.5210586.0458856,1.0309109.2307151,1.5271717.5520276.2084159.1364831.3969556.2791372.5669442.430499.1699508.1513618.2766385.2505912.3212747.2989755l1.0371577-1.5966436c-.0831392-.0669354-.2096652-.157495-.379616-.2741019-.1699886-.1178941-.3126428-.2133755-.4280003-.287807-.6116183-.3969935-1.2641626-.5967395-1.9564213-.5992383-.6922209-.0012115-1.2951315.1898269-1.8099812.5744025l-.1054384-.0695098,1.0011156-1.543224-1.5159653-.9838138-6.6333798,10.2148772,1.569347,1.0185309ZM359.2347264,64.5202159c-.2257933-.5396476-.1625303-1.0830054.1922878-1.628862.2592989-.3982807.5719038-.6451238.9378904-.7381822.3659488-.0930584.7641916-.0831392,1.1921919.0273345.4292118.1116095.8646704.2728904,1.3075494.4850544.1823686.0868494.4205799.2021691.7158073.3461105.2940159.1438656.6016991.2865955.9217623.4292496.3200632.1414426.6140791.2530521.8795491.3349041.2655078.0806405.4577956.1029775.5756519.0670111l-.9329308,1.4365742c-.2766385.4255394-.6487962.759232-1.1189718,1.0024028-.4701756.2431329-.9986926.3486092-1.5842258.3138543-.5867825-.0335056-1.189731-.2518406-1.8112306-.6550051-.6240362-.4069126-1.0495377-.879587-1.2753311-1.4204461M361.0385365,67.9094254c.5272297.0905596.9974054.0893481,1.4092776-.0024609.4118722-.0905596.7443533-.2133755.9936951-.3659866l.0806405.0521324-.8981759,1.3832303,1.569347,1.0197424,4.3705247-6.7300727c.5272676-.8113265.8138252-1.5457985.8622095-2.202053.0471349-.655043-.0508451-1.2331557-.2977262-1.733051-.2456317-.499971-.5570251-.9280091-.9341423-1.2840387-.3771551-.3548181-.7307239-.6389149-1.0582454-.8522904-.5148118-.3336926-1.0817561-.6028728-1.7020441-.8076163-.6215374-.2046678-1.2666234-.2778878-1.9390439-.2182972-.6711332.0583034-1.341055.3113555-2.0109767.759232l1.1450569,1.4998372c.4143709-.2605483.9403513-.4156203,1.5792662-.4677148.638877-.0520945,1.3336345.1662784,2.0829095.6525443.7220162.4689263,1.1438454,1.0011534,1.2641626,1.5966058.1215665.595528-.0310068,1.2207378-.4577578,1.8769923l-.0347549.0533817c-.1637418.2530521-.3684475.3721577-.6140791.3573168-.2456317-.0149166-.5768634-.1266018-.9924458-.336267-.4143709-.2095895-.9589781-.4763467-1.6313607-.8001201-.5148497-.2456317-1.0396186-.4689263-1.575556-.6686724-.534688-.1985346-1.0631671-.3200632-1.5841879-.3622385-.5210586-.0421753-1.0160322.0446741-1.483747.2604725-.4677148.2171614-.891967.6178651-1.271583,1.202111-.4329599.6649621-.6451238,1.332423-.6389149,2.0023069.0074583.6686724.1935372,1.2976681.5619846,1.8869115.367236.5880319.8758389,1.0929624,1.5222121,1.5135044.594203.3858249,1.1549761.6239983,1.6834552.7145579M360.4889698,51.6156948c.0272588-.7604435-.0781796-1.4911295-.316353-2.1908466-.2394606-.7009286-.5967395-1.3472639-1.0718748-1.939006-.4751352-.5929536-1.0569582-1.1127629-1.7442574-1.5581406-1.161185-.7555218-2.3794242-1.1425961-3.6522565-1.1624344s-2.5084489.3250606-3.7068119,1.0346211c-1.1984008.7096362-2.2640666,1.7827225-3.1969975,3.2193345-.932893,1.4365363-1.4787495,2.8458896-1.6400305,4.2291199s.0272966,2.6523524.563234,3.8072907c.5359374,1.155014,1.3844797,2.1102818,2.5456647,2.8645164.6872613.4453777,1.398109.7654409,2.1337925.9589781.7343963.1935372,1.4700797.2567623,2.2069747.1898269.736895-.0657996,1.4477427-.2679687,2.1325432-.60416.6848005-.3374785,1.3162571-.8138252,1.8918711-1.4291916l-1.6487003-1.0705875c-.4032024.4069126-.8423712.7120592-1.3187558.9168027-.4763846.2046678-.9663985.3175645-1.4700797.341113-.5036812.022337-1.0036143-.0396766-1.5010866-.186041-.4974723-.1464401-.9726075-.3660245-1.4241942-.6600404-.8249559-.5359374-1.4353248-1.2281583-1.8323183-2.0779499-.3969935-.8510031-.5272297-1.8087697-.3932832-2.8744356.1352337-1.0668773.585571-2.1895594,1.351012-3.3694091.7654409-1.1784868,1.6090236-2.0469052,2.5282873-2.6026809.9192636-.5570629,1.8472349-.8274546,2.7850874-.810115.9378904.0161281,1.8199383.2928044,2.6436826.8274546.4527982.2940159.8472929.6377034,1.1834842,1.0334096.3349798.3944947.5954902.8262431.7791082,1.2951694.1835801.4701378.2803487.9626883.2890564,1.4787874.0074204.5160233-.0930584,1.0420416-.3039351,1.5804777l1.6499496,1.0705875c.3299824-.7802818.5098901-1.5519317.5371867-2.3124509"/>
    <path class="st9" d="M663.2294571,230.6515668l-.0334677-1.8745315-7.6531222.1339843,7.3962842-11.239617-.0260473-1.4527023-10.3178168.1798699.0334677,1.875743,7.6531222-.1339843-7.3963599,11.2396549.026123,1.4514529,10.3178168-.1798699ZM642.2178041,218.4554325l.2195844,12.5596221,2.1710083-.0384651-.2195844-12.5583728,4.5032975-.0793911-.0322562-1.8744936-11.1713944.1947487.0335434,1.8745315,4.4958014-.0781796ZM624.5880159,227.5054523l7.4992996-.1314856-.0322562-1.8323561-7.4980502.1315235.0310068,1.8323183ZM628.1484635,219.4479162l.1128967-.0012494,4.2874612,11.7407995,2.3111637-.040926-5.4461097-14.3423068-2.5159072.0434247-4.9424285,14.5246754,2.3124131-.040926,3.8805107-11.8834915ZM618.8540993,231.4256775l-.0335056-1.8745315-6.5390721.114146-.2195844-12.5583349-2.1784666.0372158.25309,14.4340779,8.7175387-.1525733ZM597.9144169,231.7916263l-.2195844-12.5657932,2.7342044-.0483843c.724515-.01238,1.3100481.0980179,1.7578867.3287709.4478765.2320023.7791082.5582744.993733.977567.2146248.4193305.3262721.9006746.3349419,1.4465312.0099192.5446072-.0843507,1.0321603-.2840968,1.4638708-.1997082.4317105-.5173106.7741107-.95523,1.0284501-.4367079.2543015-1.0110726.3870364-1.7194595.3994543l-3.3408631.0583034.0322562,1.8472349,3.5381105-.0620515c1.1177603-.0198383,2.0432329-.2406721,2.7764176-.6649621.7319354-.4242522,1.2765426-.9924458,1.6338594-1.7070037.3560296-.7133464.5272297-1.5135044.5111016-2.4017612-.0148787-.8832972-.2121261-1.6760348-.5917421-2.375714-.3783666-.7009286-.9403513-1.249246-1.6847045-1.6449901-.7456026-.3957441-1.6784956-.5843217-2.8012155-.5644834l-5.1446733.0893481.2518406,14.4340779,2.1772172-.0384651Z"/>
    <path class="st9" d="M668.5078876,197.6088086l.0322562,1.8323183,6.398841-.1116473-.030969-1.8323183-6.4001282.1116473ZM657.8872714,193.3672708l.2183729,12.5583728,2.1710083-.0384651-.2195844-12.5583728,4.5032975-.0781418-.0322562-1.8744936-11.1701829.1947487.0322562,1.8745315,4.4970886-.0781796ZM644.4109222,199.6507921l3.6088318,6.4510112,2.4811523-.0434247-3.6807646-6.4497618-2.4092195.0421753ZM641.9868619,206.2072417l-.2195844-12.5657932,2.7342044-.0483843c.7195554-.0124179,1.3025898.0843507,1.7504663.2903057.4478007.2059172.7790703.5073914.996156.9031355.2158742.3957441.3287709.8659197.3374785,1.4105269.0099192.540897-.0856379,1.0048637-.285384,1.3943988-.1997461.3883237-.5198093.6885107-.9614011.8981759-.440456.2096652-1.0123598.3200632-1.7169986.3324811l-3.700603.0645124.0334677,1.8744936,3.8966388-.0682226c1.1190476-.018589,2.0444822-.2207959,2.777667-.6054093.7331848-.3833262,1.2790413-.9130547,1.6362824-1.5891475.3573168-.6761307.5273054-1.4564503.5123888-2.3397475-.0149166-.8870074-.212164-1.6673271-.5905306-2.340959-.3783666-.6723826-.9415628-1.1946906-1.6871654-1.5668483-.7468141-.3721577-1.679745-.5483174-2.7975053-.5297284l-5.1446354.0905596.2518406,14.4328664,2.1772172-.0372158ZM635.2616731,206.3238486l-.0322562-1.8744936-6.9559039.1215665-.0768924-4.4189468,6.3988788-.1116473-.0322562-1.8670732-6.3988788.1116852-.0769303-4.3978592,6.8715153-.1203171-.0334677-1.8745315-9.0487704.1575707.2518406,14.4340779,9.1331211-.1600316ZM613.3915586,194.1227926l2.973665-.0520945c.8646704-.0149166,1.5097942.1749103,1.9340464.5719038.4255394.3969556.6438745.8944279.6537936,1.489918.0087077.4652161-.1004788.8708793-.3275215,1.2157783-.2270048.3448611-.534688.6140791-.9229738.8088278-.3895352.1947865-.828704.2965147-1.3175064.3051845l-2.9178224.050883-.0756809-4.3904009ZM613.496997,200.2115274l3.2217954-.0558047c.581823-.0111685,1.0880029.0930205,1.5172147.3113555.4292496.2183729.7617307.5148497.9986547.8920049.2369619.3771173.3597777.7926997.367236,1.2479966.0111685.6066587-.205955,1.1152995-.6500834,1.5271717s-1.1872323.6277085-2.2305232.645086l-3.1436536.0558426-.0806405-4.6236525ZM616.9656734,206.6439118c1.1177603-.0198383,2.0333137-.2059172,2.7466223-.5594859.7133464-.3523194,1.2368659-.8249937,1.5718079-1.4154865.3349798-.59178.4962229-1.2554928.4838429-1.9935992-.0136672-.746852-.1749482-1.3783086-.4850922-1.8943698-.3088947-.5173106-.6959311-.9130547-1.1586863-1.189731-.4627173-.2753891-.9341423-.4217914-1.4142371-.4366701l-.0024987-.1414426c.4391688-.1203171.8423712-.306396,1.2058591-.5594859.3646994-.25309.6537558-.5867825.8683806-1.0024028.2133755-.4155824.3151036-.9229738.3039351-1.5246351-.01238-.7145958-.1897891-1.3534728-.5334387-1.9191677-.3436496-.5644834-.8547512-1.0086117-1.5320934-1.3336345-.6785915-.3238113-1.528421-.4776339-2.553123-.4590071l-5.2860781.091809.2518406,14.4340779,5.5329591-.0967686ZM607.2383115,206.8139004l-.0322562-1.8745315-6.5403215.114146-.2195844-12.5595843-2.1772172.0384273.2518406,14.4328664,8.7175387-.1513239ZM584.4563539,203.389898l7.4980502-.1302741-.0310068-1.8323183-7.4992996.1302741.0322562,1.8323183ZM588.0168392,195.3335734l.1128588-.0024609,4.2862118,11.7407995,2.3124131-.0396766-5.4461097-14.3435561-2.5159072.0446741-4.9424285,14.523426,2.3111637-.0397145,3.8817979-11.8834915Z"/>
    <g>
      <g class="st5">
        <path class="st4" d="M67.7399917,495.5200876c17.1099522,0,30.9805773-13.8706238,30.9805773-30.9805773s-13.870625-30.9805773-30.9805773-30.9805773-30.9805773,13.870625-30.9805773,30.9805773,13.8706238,30.9805773,30.9805773,30.9805773"/>
      </g>
      <rect class="st6" x="55.4272615" y="447.1265747" width="3.4695643" height="3.4695643" transform="translate(-300.6502008 171.8876854) rotate(-44.999931)"/>
      <polygon class="st6" points="68.1535207 451.3110507 68.1535207 454.4648759 77.6162278 454.4648759 77.6162278 471.5686307 68.1572363 477.0298863 58.6908112 471.5661512 58.6908112 454.4648759 55.5369907 454.4648759 55.5369907 473.3902878 55.5407075 473.3902878 68.1559977 480.6719643 80.7712868 473.3902878 80.7712868 451.3110507 68.1535207 451.3110507"/>
    </g>
  </g>
</svg>